<?xml version="1.0" encoding="UTF-8" standalone="no"?>
<!-- Created with Inkscape (http://www.inkscape.org/) -->

<svg
   version="1.1"
   id="svg1"
   width="1024"
   height="1024"
   viewBox="0 0 1024 1024"
   xml:space="preserve"
   xmlns="http://www.w3.org/2000/svg"
   xmlns:svg="http://www.w3.org/2000/svg"><defs
     id="defs1" /><g
     id="g1"><path
       style="fill:#ffffff;fill-opacity:1"
       d="m 518.16896,365.95276 c -1.2375,-0.20445 -2.25,-0.76011 -2.25,-1.23479 0,-0.97888 -3.92091,-2.49859 -5.62264,-2.1793 -0.61745,0.11585 -1.68454,-1.14593 -2.37132,-2.80395 -0.68677,-1.65802 -1.58608,-3.01459 -1.99846,-3.01459 -0.41238,0 -1.81044,-1.54795 -3.10682,-3.43988 -1.54513,-2.25496 -2.60687,-3.03565 -3.08231,-2.26637 -0.44537,0.72062 -1.33188,-0.36389 -2.29708,-2.81012 -0.8645,-2.191 -2.0176,-4.77644 -2.56244,-5.74544 -0.54484,-0.96899 -2.08191,-5.01899 -3.4157,-9 -1.3338,-3.981 -3.33698,-9.71319 -4.45151,-12.73819 -1.11454,-3.025 -2.04112,-7.34336 -2.05907,-9.59636 -0.018,-2.253 -0.75342,-5.54118 -1.63436,-7.30707 -0.88094,-1.76588 -1.38187,-4.05135 -1.11318,-5.07882 0.36754,-1.40549 0.0832,-1.71646 -1.14829,-1.2557 -1.38566,0.51844 -1.43861,0.36844 -0.34508,-0.97757 1.01692,-1.25172 1.02767,-1.67801 0.0506,-2.00371 -0.80768,-0.26923 -0.62948,-0.64846 0.5102,-1.0858 1.04719,-0.40184 1.50572,-0.27459 1.14042,0.31648 -0.33602,0.5437 0.3156,0.98855 1.44806,0.98855 1.13246,0 2.05902,-0.47656 2.05902,-1.05902 0,-0.58246 0.52647,-0.73364 1.16994,-0.33595 0.78205,0.48333 0.9623,0.18197 0.54367,-0.90896 -0.34444,-0.89761 -0.23816,-1.87188 0.23618,-2.16504 0.47435,-0.29316 0.62721,-1.43257 0.3397,-2.53203 -0.77433,-2.96105 0.43956,-2.42364 2.19551,0.972 0.845,1.63404 2.54406,3.95023 3.77568,5.14706 1.23163,1.19684 1.56432,1.79625 0.73932,1.33201 -0.825,-0.46424 -0.0375,0.6292 1.75,2.42986 1.7875,1.80065 3.25,3.96678 3.25,4.81362 0,1.04738 0.63951,1.37248 2,1.0167 1.1,-0.28766 2.00055,-0.22764 2.00122,0.13337 6.7e-4,0.36101 1.12567,1.96387 2.5,3.56192 1.37433,1.59805 2.49878,3.48399 2.49878,4.19098 0,0.707 0.44485,1.56038 0.98855,1.8964 0.5437,0.33603 0.74822,-0.0153 0.45449,-0.78077 -0.71202,-1.85548 2.30028,-4.36883 3.63565,-3.03346 0.54666,0.54666 1.26503,2.75509 1.59638,4.90762 0.33135,2.15253 1.04511,4.47619 1.58614,5.16369 1.13133,1.43762 5.15328,1.72968 4.27619,0.31052 -0.31934,-0.51671 0.4416,-0.95824 1.69099,-0.98117 4.96684,-0.0911 5.63026,-0.26861 6.15942,-1.64759 0.30218,-0.78747 1.18209,-1.43176 1.95535,-1.43176 0.77326,0 5.82114,-2.24124 11.21751,-4.98054 5.39637,-2.7393 10.01173,-4.78039 10.25636,-4.53576 0.24464,0.24463 -0.32758,2.07242 -1.27158,4.06175 -0.944,1.98934 -1.49145,3.84189 -1.21655,4.11678 0.84331,0.84332 4.88199,-1.75941 7.43131,-4.7891 3.15555,-3.75016 4.98287,-3.72543 2.30788,0.0312 -1.13745,1.5974 -2.06809,3.19016 -2.06809,3.53945 0,0.34929 -1.575,2.97382 -3.5,5.83228 -1.925,2.85846 -3.5,5.69819 -3.5,6.31051 0,0.61232 -1.29383,2.89939 -2.87517,5.08237 -1.58135,2.18298 -3.18583,4.94784 -3.56551,6.14412 -0.37969,1.19628 -1.44434,2.92906 -2.3659,3.85062 -1.21732,1.21733 -1.33615,1.7887 -0.43449,2.08926 2.06548,0.68849 1.39173,2.24173 -1.00893,2.32597 -1.2375,0.0434 -1.71071,0.29818 -1.05157,0.56614 0.90282,0.36702 0.92441,1.08857 0.0875,2.92528 -1.23919,2.71974 -0.20353,4.7039 1.25308,2.40067 1.44672,-2.2876 1.12418,0.39403 -0.52098,4.33145 -0.81506,1.95071 -3.0219,5.22772 -4.90409,7.28224 -3.15823,3.44739 -3.87302,3.74645 -9.26808,3.87756 -3.21525,0.0781 -6.85841,-0.0252 -8.09591,-0.22966 z m -3.25,-49.67361 c 0,-0.24254 -0.45,-0.7191 -1,-1.05902 -0.55,-0.33992 -1,-0.14148 -1,0.44098 0,0.58246 0.45,1.05902 1,1.05902 0.55,0 1,-0.19844 1,-0.44098 z"
       id="path441" /><path
       style="fill:#ffffff;fill-opacity:1"
       d="m 550.28607,362.64251 c 0,-0.47154 2.925,-5.69892 6.5,-11.6164 3.575,-5.91747 6.5,-11.13876 6.5,-11.60286 0,-0.4641 1.125,-2.05708 2.5,-3.53995 1.375,-1.48288 2.5,-3.33568 2.5,-4.11734 0,-0.78166 0.675,-1.9814 1.5,-2.66609 0.825,-0.68469 1.5,-1.82729 1.5,-2.53911 0,-0.71182 0.3375,-1.44422 0.75,-1.62756 0.4125,-0.18333 2.05265,-3.03333 3.64477,-6.33333 1.59213,-3.3 3.87891,-7.35 5.08173,-9 1.95846,-2.68657 5.78084,-9.36225 11.16493,-19.49924 1.02222,-1.92459 2.12532,-3.72459 2.45135,-4 0.32602,-0.27542 1.52768,-3.20076 2.67035,-6.50076 3.14709,-9.08875 4.6742,-12.94819 5.34168,-13.5 0.66495,-0.54971 3.13751,-10.31953 3.4166,-13.5 0.0965,-1.1 -0.3188,-2.32109 -0.92295,-2.71353 -0.60415,-0.39243 -1.09846,-1.29243 -1.09846,-2 0,-0.72046 -1.42991,-1.42434 -3.25,-1.59983 -3.34197,-0.32222 -4.26123,-2.13354 -2,-3.9408 0.6875,-0.54948 3.7797,-1.30474 6.87156,-1.67836 4.50564,-0.54445 5.73533,-0.3828 6.19472,0.81434 0.6732,1.75433 6.68527,3.60467 11.73794,3.6126 2.34145,0.004 5.20935,1.11454 8.40488,3.25558 6.65006,4.45561 13.4053,8.43356 17.30148,10.18831 7.01486,3.15931 20.31817,17.99851 21.57126,24.06169 0.34101,1.65 0.88405,3.91965 1.20676,5.04367 0.82989,2.89053 -5.17375,9.01173 -10.15392,10.35275 -2.14104,0.57652 -4.67406,1.96067 -5.62895,3.0759 -0.95489,1.11522 -2.41556,2.02768 -3.24594,2.02768 -0.83039,0 -1.50979,0.675 -1.50979,1.5 0,0.825 -0.72274,1.5 -1.60608,1.5 -0.88334,0 -2.46841,1.09627 -3.52237,2.43617 -1.87122,2.37887 -5.97393,3.16499 -5.74812,1.1014 0.24486,-2.23774 -0.16792,-3.53757 -1.12343,-3.53757 -0.55,0 -1,0.49808 -1,1.10684 0,0.60876 -1.86643,3.42126 -4.14763,6.25 -2.76339,3.42668 -3.96273,4.39224 -3.59362,2.89316 0.56983,-2.31423 -1.51672,-3.25965 -2.75875,-1.25 -0.33992,0.55 -0.18361,1 0.34736,1 1.10256,0 0.3513,3.8769 -1.11424,5.75 -0.5379,0.6875 -1.61374,1.25 -2.39075,1.25 -1.1222,0 -1.18318,-0.42893 -0.29653,-2.08565 0.61391,-1.1471 0.79313,-2.3846 0.39828,-2.75 -0.39486,-0.36539 -0.93336,-0.0582 -1.19666,0.68255 -1.01286,2.84969 -6.40158,8.03119 -7.7959,7.49614 -0.78909,-0.3028 -1.71164,0.17114 -2.05012,1.05321 -0.33848,0.88206 -1.26883,1.60375 -2.06745,1.60375 -0.79861,0 -1.17391,0.45 -0.83399,1 0.33992,0.55 0.029,1.00208 -0.69098,1.00463 -0.71996,0.003 -2.75353,1.35854 -4.51904,3.01332 -1.76552,1.65479 -3.64068,2.8902 -4.16703,2.74538 -1.19207,-0.32801 -9.12295,4.42963 -9.12295,5.47274 0,0.42016 -0.675,0.76393 -1.5,0.76393 -0.825,0 -1.5,0.50248 -1.5,1.11663 0,0.63845 -0.89031,0.88381 -2.07899,0.57296 -1.49976,-0.39219 -1.92984,-0.155 -1.54367,0.85135 0.70102,1.82683 -1.36989,3.08915 -2.38181,1.45183 -1.40965,-2.28087 -9.74435,1.42788 -14.49553,6.45017 -1.93295,2.04324 -8.37755,6.55706 -9.36185,6.55706 -0.54741,0 -1.71498,0.71969 -2.5946,1.59931 -1.17124,1.17124 -1.94617,1.31144 -2.89522,0.52379 -0.931,-0.77265 -1.62713,-0.7443 -2.47212,0.10069 -0.64692,0.64692 -1.17621,0.7904 -1.17621,0.31885 z"
       id="path440" /><path
       style="fill:#ffffff;fill-opacity:1"
       d="m 410.61547,386.1728 c -0.72662,-0.87553 -1.69853,-1.59187 -2.1598,-1.59187 -1.81956,0 -19.14417,-11.06927 -27.33574,-17.46571 -4.76674,-3.72214 -10.78494,-9.27922 -13.37376,-12.34906 -2.58881,-3.06984 -10.89444,-11.74952 -18.45694,-19.28819 -13.09662,-13.05534 -15.83805,-17.03436 -12.50226,-18.14629 1.52205,-0.50735 18.77493,4.08576 20.45846,5.4465 0.6634,0.53621 1.59316,0.73577 2.06612,0.44346 0.47296,-0.2923 2.63017,0.0992 4.7938,0.87002 2.16364,0.77082 4.69989,1.42124 5.63613,1.44538 2.52681,0.0651 -2.18449,-4.72779 -8.03287,-8.17207 -2.56816,-1.51247 -4.34996,-2.75761 -3.95957,-2.76699 0.3904,-0.009 7.41543,2.6799 15.61117,5.97617 8.19575,3.29627 16.22169,6.13776 17.83542,6.31443 1.61373,0.17666 3.41259,0.61695 3.99747,0.97843 0.58487,0.36147 4.61807,1.78014 8.96265,3.15259 10.87573,3.43564 29.38348,16.17688 29.38348,20.22839 0,0.83831 0.81302,2.71867 1.80671,4.17857 0.99369,1.4599 1.73723,3.32937 1.65231,4.15437 -0.0849,0.825 -0.22293,2.46805 -0.30671,3.65122 -0.0929,1.31171 -1.54102,2.97059 -3.71083,4.25081 -1.95719,1.15477 -3.29985,2.51812 -2.98369,3.02967 0.31616,0.51156 0.16646,1.1825 -0.33267,1.49097 -0.49913,0.30848 -0.69896,2.10841 -0.44407,3.99985 0.2549,1.89143 -0.0166,4.33595 -0.60333,5.43225 -2.42412,4.52952 -15.35065,7.93114 -18.00148,4.7371 z"
       id="path439" /><path
       style="fill:#ffffff;fill-opacity:1"
       d="m 629.32312,658.40561 c -2.04387,-1.70043 -5.47812,-4.75899 -7.63166,-6.7968 -2.15355,-2.03782 -5.00287,-4.44504 -6.33183,-5.3494 -1.70754,-1.16198 -2.36671,-2.48191 -2.24729,-4.5 0.34725,-5.86774 0.23257,-5.71307 2.9269,-3.94768 1.375,0.90094 2.5,1.28002 2.5,0.84242 0,-1.18369 -6.9723,-4.72085 -9.75116,-4.94693 -1.3282,-0.10806 -2.97324,-0.65984 -3.65563,-1.22617 -0.6824,-0.56634 -2.78253,-1.03229 -4.66696,-1.03545 -6.27331,-0.0105 -12.48012,-0.64815 -13.71038,-1.4085 -0.66873,-0.41329 -1.66587,-0.47333 -2.21587,-0.13341 -0.55,0.33992 -1,-0.0835 -1,-0.94098 0,-0.85746 -0.675,-1.55902 -1.5,-1.55902 -0.825,0 -1.3875,0.49325 -1.25,1.0961 0.1375,0.60286 -0.77527,1.49308 -2.02839,1.97828 -1.7504,0.67774 -2.66575,0.42976 -3.94998,-1.07011 -1.55076,-1.81115 -1.80172,-1.83452 -3.47161,-0.32329 -1.66447,1.50632 -1.80002,1.50436 -1.80002,-0.026 0,-0.91025 -0.43588,-1.65499 -0.96862,-1.65499 -0.53273,0 -0.73089,0.61948 -0.44035,1.37662 0.57953,1.51025 -3.94619,3.13995 -5.70355,2.05384 -0.5613,-0.34691 -1.69898,0.20183 -2.52817,1.2194 -0.82919,1.01758 -1.2227,1.28764 -0.87445,0.60014 0.40538,-0.80028 -0.1076,-1.25 -1.42584,-1.25 -3.14656,0 -3.57747,0.13233 -3.33436,1.02397 0.12356,0.45319 -1.12842,0.65273 -2.78217,0.44344 -1.65376,-0.2093 -2.76343,0.0133 -2.46594,0.49465 0.50917,0.82386 -4.1428,2.32846 -6.08286,1.96741 -3.26221,-0.6071 -5.0672,0.35246 -6.24608,3.32053 l -1.29087,3.25 -1.04244,-2.5 c -0.77224,-1.852 -1.18088,-2.1112 -1.57654,-1 -1.09851,3.08516 -6.08856,6.799 -10.03015,7.46492 -2.56168,0.4328 -4.70414,1.56932 -5.86013,3.10865 -1.0022,1.33453 -2.39037,2.42643 -3.08483,2.42643 -0.69446,0 -1.26265,0.69253 -1.26265,1.53896 0,1.23561 -0.42897,1.13931 -2.17629,-0.48857 -1.19695,-1.11513 -3.09998,-2.32069 -4.22895,-2.67901 -3.01417,-0.95666 -8.5947,-5.65627 -8.59473,-7.23801 -2e-5,-0.86098 -0.71901,-1.17862 -1.94321,-0.85848 -1.11489,0.29155 -2.60772,-0.22615 -3.50219,-1.21452 -1.72166,-1.90242 -1.14367,-3.22364 1.04314,-2.38448 0.77122,0.29595 1.40223,0.0399 1.40223,-0.5689 0,-0.60885 -0.70156,-1.10699 -1.55902,-1.10699 -0.85746,0 -1.31996,-0.38679 -1.02779,-0.85953 0.75492,-1.2215 -1.68676,-6.12332 -3.05478,-6.13267 -0.62788,-0.004 -1.43783,-1.1881 -1.7999,-2.63069 -0.63061,-2.51258 -0.72127,-2.54412 -2.15553,-0.75 -1.38132,1.72791 -1.44478,1.60196 -0.81978,-1.62711 0.37259,-1.925 1.51879,-4.57319 2.54712,-5.88486 1.02832,-1.31167 1.86968,-3.25375 1.86968,-4.31574 0,-1.06199 0.48801,-2.84275 1.08448,-3.95725 0.59646,-1.11449 1.27931,-3.44741 1.51745,-5.18425 0.70974,-5.17646 1.30024,-11.93821 1.35073,-15.46692 0.0278,-1.94165 0.46056,-3.05363 1.04734,-2.69098 0.93616,0.57858 1.67199,-6.63486 0.91808,-9 -0.7247,-2.27351 -1.44576,-21.07772 -0.8436,-22 0.93699,-1.43511 0.74878,-4.5 -0.27633,-4.5 -0.47768,0 -0.39971,-0.87597 0.17328,-1.94661 0.80338,-1.50113 0.68076,-2.14865 -0.53581,-2.82948 -2.73327,-1.52961 -3.08146,-7.87646 -2.37131,-43.22391 0.13812,-6.875 -0.072,-13.625 -0.46694,-15 -0.39494,-1.375 -0.97638,-4.19658 -1.2921,-6.27018 -0.48812,-3.20595 -0.32943,-3.67632 1.06035,-3.14301 2.71849,1.04318 1.83005,-1.17663 -0.98411,-2.45884 -2.17718,-0.99199 -2.52338,-1.66861 -2.05417,-4.01469 0.31038,-1.55189 0.0562,-3.32974 -0.56484,-3.95078 -1.40273,-1.40273 -0.52211,-2.3601 2.45585,-2.66989 3.68056,-0.38289 3.74525,-0.4239 3.14328,-1.99261 -0.31659,-0.825 -0.0775,-1.5 0.53138,-1.5 0.60885,0 0.99449,0.53577 0.85699,1.19061 -0.1375,0.65484 0.65,1.36041 1.75,1.56794 1.1,0.20752 3.35,0.9594 5,1.67082 1.65,0.71143 5.13581,2.14336 7.74625,3.18207 2.61044,1.03871 4.74794,2.34281 4.75,2.89801 0.002,0.5552 0.98321,1.62114 2.18033,2.36875 1.88394,1.17654 2.33941,1.13662 3.38763,-0.2969 0.66608,-0.91092 1.59912,-1.58607 2.07342,-1.50034 2.23751,0.40445 3.42433,-0.17429 2.72943,-1.33096 -0.43768,-0.72852 0.035,-0.62422 1.13294,0.25 1.03615,0.825 1.55612,0.95391 1.15548,0.28647 -0.41154,-0.6856 0.1575,-2.09945 1.30805,-3.25 1.12006,-1.12006 1.58647,-2.03647 1.03647,-2.03647 -0.55,0 -1,-0.45 -1,-1 0,-0.55 0.66088,-1 1.46862,-1 0.8735,0 1.24266,-0.5888 0.91102,-1.45305 -0.3841,-1.00095 0.9244,-2.14968 4.20549,-3.69197 2.61969,-1.2314 4.23875,-2.41369 3.5979,-2.6273 -0.80174,-0.26725 -0.67705,-0.87652 0.39979,-1.95335 1.2724,-1.27241 1.31747,-1.72474 0.24107,-2.41965 -1.07721,-0.69543 -1.0444,-1.03815 0.17611,-1.83937 1.0922,-0.71698 1.14412,-0.98885 0.19098,-1 -0.71996,-0.008 -1.05195,-0.43125 -0.73775,-0.93963 0.31419,-0.50837 -0.22175,-1.13117 -1.19099,-1.384 -1.64378,-0.42878 -1.64064,-0.46747 0.0468,-0.57568 1.09526,-0.0702 1.52817,-0.57041 1.09722,-1.2677 -0.39148,-0.63344 -0.0164,-1.66018 0.8335,-2.28165 2.13222,-1.55912 12.83521,-22.98757 11.68772,-23.39998 -1.39932,-0.50293 -1.1131,-2.2038 0.32254,-1.91667 1.26166,0.25233 1.40277,-1.82126 0.40685,-5.97897 -0.29365,-1.22594 -0.11158,-2.48999 0.40462,-2.80902 0.51619,-0.31902 0.93853,-1.286 0.93853,-2.14884 0,-2.07473 -5.33977,-1.25724 -13.51603,2.06922 -3.44142,1.40012 -6.22837,2.03118 -6.56498,1.48653 -0.36077,-0.58374 -1.70279,-0.52142 -3.50196,0.16262 -1.60437,0.60998 -3.14203,1.12608 -3.41703,1.14689 -0.275,0.0208 -2.18458,0.71186 -4.24351,1.53568 -4.41209,1.76537 -4.04072,3.28589 0.80253,3.28589 4.14639,0 4.43778,1.10766 0.69098,2.62666 -11.21927,4.54841 -14.04779,5.82699 -16.25,7.34551 -1.375,0.94812 -4.55206,2.22722 -7.06012,2.84243 -7.52893,1.8468 -21.9399,0.0143 -21.9399,-2.78985 0,-0.56361 -0.76134,-1.02475 -1.69187,-1.02475 -0.93052,0 -3.37034,-1.8 -5.42181,-4 -2.05146,-2.2 -4.44012,-4 -5.30813,-4 -1.13404,0 -1.57819,-0.97546 -1.57819,-3.46607 0,-4.36196 -2.78845,-10.33201 -5.18038,-11.09118 -1.00079,-0.31764 -1.81962,-0.96145 -1.81962,-1.43068 0,-0.46924 -1.28551,-1.13551 -2.8567,-1.4806 -3.37204,-0.74062 -5.15946,-3.74598 -4.97073,-8.35774 0.1185,-2.89566 0.40742,-3.24121 2.23178,-2.66926 5.31427,1.66606 6.15888,1.54302 9.30157,-1.35494 2.93315,-2.70474 4.03924,-3.01887 13,-3.69196 6.06668,-0.4557 11.31639,-0.3383 13.79408,0.30848 2.2,0.57428 8.13707,1.61933 13.19348,2.32232 10.3049,1.43268 16.43099,0.7145 30.80652,-3.61157 4.4,-1.3241 16.325,-3.99657 26.5,-5.93882 10.175,-1.94225 21.2,-4.23638 24.5,-5.09806 3.3,-0.86169 7.8,-1.99562 10,-2.51986 2.2,-0.52424 6.925,-1.81523 10.5,-2.86888 3.575,-1.05365 8.525,-2.47964 11,-3.16887 5.60612,-1.56118 5.12222,-1.41198 7.5,-2.31241 4.64533,-1.75912 7.14465,-2.54468 9.5,-2.98594 4.49847,-0.84277 12.05906,-4.19129 11.27067,-4.99169 -0.42387,-0.43032 -0.0957,-0.6608 0.72933,-0.51216 0.825,0.14863 3.34653,-0.25817 5.6034,-0.904 2.25687,-0.64584 5.29437,-1.27281 6.75,-1.39329 1.45563,-0.12047 2.6466,-0.57089 2.6466,-1.00093 0,-0.43004 0.92958,-0.78189 2.06574,-0.78189 1.13616,0 2.9578,-0.47741 4.04808,-1.06092 2.31516,-1.23903 12.74159,0.49514 14.40615,2.3961 1.87,2.13557 5.22718,3.5437 7.2115,3.02479 1.32979,-0.34775 2.73628,0.40231 4.36523,2.32791 1.34142,1.5857 4.39159,3.43725 6.90331,4.19052 9.3807,2.81332 11.6049,4.63455 15.7183,12.87058 4.1581,8.32534 3.4268,10.97796 -5.5294,20.0595 -6.3285,6.41695 -6.9694,6.80574 -11.051,6.70334 -2.95756,-0.0742 -4.63505,-0.64878 -5.28505,-1.81026 -0.57939,-1.03531 -2.17449,-1.70156 -4.07381,-1.70156 -1.71686,0 -3.832,-0.61719 -4.70031,-1.37152 -3.52945,-3.06619 -18.06585,-6.54561 -18.09405,-4.33097 -0.0111,0.87101 -0.24015,0.84813 -0.83094,-0.083 -0.54872,-0.86481 -2.36894,-1.14037 -5.56226,-0.84205 -2.61064,0.24388 -6.17422,0.032 -7.91906,-0.47093 -2.54344,-0.73306 -3.42026,-0.57778 -4.42243,0.78318 -0.8224,1.11684 -1.25,1.25265 -1.25,0.39699 0,-0.94807 -1.0163,-1.12995 -3.75,-0.6711 -2.0625,0.34619 -4.95421,0.79829 -6.42603,1.00467 -1.47181,0.20638 -3.10832,0.64242 -3.63669,0.96896 -0.52837,0.32655 -1.5209,-0.0813 -2.20562,-0.90635 -1.09817,-1.32321 -1.4137,-1.29243 -2.67613,0.26101 -0.9623,1.18414 -1.59271,1.37855 -1.92424,0.59343 -0.53773,-1.27344 -7.42877,-0.82639 -8.3445,0.54133 -1.17274,1.75162 -5.04507,1.93421 -6.00874,0.28333 -0.82097,-1.40644 -0.97183,-1.42454 -0.99764,-0.11971 -0.0198,1.00287 -1.13876,1.62175 -3.21865,1.78023 -2.83786,0.21624 -4.57632,0.44538 -12.31176,1.62281 -1.1,0.16743 -2,0.39935 -2,0.51538 0,0.11603 -1.02847,0.32443 -2.2855,0.46312 -3.23217,0.35661 -5.34014,2.58117 -2.44588,2.58117 1.58799,0 2.00221,0.43363 1.54711,1.61962 -0.52464,1.36717 0.0258,1.55788 3.53138,1.22357 4.15864,-0.39659 5.69327,0.5688 2.40289,1.51159 -0.9625,0.27579 -0.0625,0.2587 2,-0.038 2.2301,-0.32077 3.75,-0.12692 3.75,0.47828 0,0.55972 0.83096,0.80037 1.84657,0.53478 1.13242,-0.29613 3.01651,0.61024 4.87169,2.34362 1.66381,1.55458 4.09536,3.60701 5.40343,4.56095 2.36013,1.72118 2.36302,1.74639 0.37831,3.29868 -1.1,0.86034 -2,2.50304 -2,3.65045 0,1.14741 -0.675,2.45944 -1.5,2.91562 -4.57331,2.52879 -10.38428,4.78134 -11.13601,4.31675 -0.47519,-0.29363 -0.86399,0.22273 -0.86399,1.14754 0,1.28391 -0.31378,1.42105 -1.32714,0.58003 -1.02723,-0.85253 -1.30971,-0.66347 -1.25,0.83661 0.12124,3.04596 -1.89095,2.40579 -2.19707,-0.69898 -0.79221,-8.03491 -1.20751,-8.16015 -4.50043,-1.3572 -1.71019,3.53314 -3.29056,5.88051 -3.51194,5.21638 -0.22137,-0.66413 0.14514,-1.86738 0.81448,-2.67389 1.53597,-1.85073 0.62177,-1.86278 -2.82756,-0.0373 -1.48519,0.78602 -3.60034,2.80972 -4.70034,4.49712 -1.1,1.6874 -2.5625,3.06929 -3.25,3.07087 -0.6875,0.002 -1.25,0.36494 -1.25,0.80746 0,0.99061 -7.07189,8.80045 -7.62894,8.42501 -0.22066,-0.14872 -2.91609,1.65128 -5.98982,4 -13.50721,10.32123 -18.6667,13.37234 -15.25368,9.02041 1.25298,-1.59768 1.21537,-1.6266 -0.43216,-0.33224 -0.99252,0.77976 -2.26409,2.27632 -2.82569,3.32569 -0.91754,1.71443 -0.80848,1.79415 1.07526,0.786 1.153,-0.61707 2.57997,-0.82305 3.17105,-0.45775 0.59108,0.36531 2.04428,0.20653 3.22933,-0.35283 5.46033,-2.57736 19.35902,-5.84783 20.40532,-4.80153 0.22662,0.22662 2.26801,-0.41891 4.53643,-1.43451 2.26841,-1.0156 4.4818,-1.62566 4.91864,-1.35567 0.43684,0.26998 0.79426,0.0723 0.79426,-0.43931 0,-0.75608 3.37241,-1.54053 11.16667,-2.59745 1.26981,-0.17219 2.16154,-1.5904 1,-1.5904 -0.64167,5e-5 -1.16667,-0.47651 -1.16667,-1.05897 0,-0.58246 0.45573,-0.77736 1.01274,-0.43311 0.557,0.34425 2.41166,-0.072 4.12146,-0.92493 1.7098,-0.85296 3.50407,-1.3065 3.98726,-1.00787 0.4832,0.29863 0.87854,0.14469 0.87854,-0.34209 0,-0.48677 2.44756,-0.8257 5.43902,-0.75317 2.99146,0.0725 5.2149,-0.23076 4.94098,-0.67397 -0.27392,-0.44321 0.39172,-0.80584 1.4792,-0.80584 2.8276,0 5.21801,-1.06606 4.60705,-2.05461 -0.78035,-1.26263 3.68526,-3.38617 6.4239,-3.05476 1.98638,0.24037 2.29782,-0.0638 1.84362,-1.8007 -0.49537,-1.89428 0.26712,-2.56347 2.51623,-2.20835 0.4125,0.0651 0.75,-0.33158 0.75,-0.88158 0,-0.55 1.125,-1 2.5,-1 2.83927,0 2.83456,0.0102 1.5542,-3.35744 -1.44577,-3.80268 2.86522,-6.41256 7.07138,-4.28102 1.30593,0.6618 4.39942,1.82999 6.87442,2.59596 2.475,0.76598 5.4,2.16531 6.5,3.10963 1.1,0.94432 3.54999,2.0455 5.44442,2.44706 2.18824,0.46385 5.19521,2.49944 8.24504,5.58153 2.64034,2.66828 6.31061,5.65081 8.15615,6.62785 6.08136,3.2195 9.28613,8.02162 10.06857,15.08704 l 0.69885,6.31061 -7.30652,7.19208 c -4.01858,3.95565 -8.54117,7.98689 -10.0502,8.95831 -1.50903,0.97143 -2.69324,2.09522 -2.63158,2.49731 0.0617,0.40209 0.0272,1.63108 -0.0766,2.73108 l -0.18871,2 -0.85943,-2 c -0.95481,-2.22197 -0.9688,-2.20539 -1.64283,1.94708 -0.26311,1.6209 -0.92259,3.6459 -1.46552,4.5 -0.77237,1.21505 -0.85912,1.0817 -0.39872,-0.61292 0.32363,-1.19122 0.11278,-2.45981 -0.46856,-2.8191 -0.58135,-0.35929 -0.7981,-1.07216 -0.48166,-1.58416 0.31643,-0.51199 -0.0578,-0.9309 -0.83151,-0.9309 -0.84724,0 -1.44101,1.09387 -1.49275,2.75 -0.0473,1.5125 -0.39173,4.325 -0.7655,6.25 -0.37377,1.925 -0.62403,4.175 -0.55614,5 0.31779,3.86189 -0.0527,16.44324 -0.50582,17.17639 -0.27997,0.45298 0.01,0.82361 0.64371,0.82361 0.80762,0 0.96156,1.63673 0.5142,5.46677 -0.48631,4.16334 -0.24507,6.13037 1.01176,8.25 1.42902,2.41001 1.43503,2.52293 0.0448,0.8421 -1.55531,-1.88051 -1.60545,-1.85524 -1.60545,0.80902 0,1.57878 0.42593,2.48691 1,2.13211 0.58106,-0.35912 0.97055,0.55877 0.92971,2.19098 -0.0616,2.46297 -0.17473,2.56264 -0.91811,0.80902 -0.52325,-1.23434 -0.78347,2.11523 -0.67971,8.74947 0.0925,5.9122 0.49149,10.7497 0.88673,10.75 0.39523,2.9e-4 0.45959,-0.67447 0.14301,-1.49947 -0.67716,-1.76463 -0.3395,-1.82229 3.07327,-0.52475 1.41081,0.53639 2.5651,0.58517 2.5651,0.10841 0,-0.47677 -1.05172,-1.13081 -2.33715,-1.45343 -1.92353,-0.48278 -2.34353,-1.25411 -2.3732,-4.35841 -0.0198,-2.0745 0.17232,-2.94569 0.427,-1.93596 0.33065,1.31089 1.08076,1.68085 2.62321,1.2938 2.09675,-0.52615 2.15991,-0.27191 2.15217,8.66414 -0.004,5.06341 0.29,9.6562 0.65419,10.2062 1.38998,2.0992 1.31429,6.0444 -0.13849,7.2182 -1.34284,1.08497 -1.34199,1.22167 0.008,1.25 1.16264,0.0244 1.52278,1.31253 1.54661,5.5318 0.0171,3.025 -0.32741,5.5 -0.76555,5.5 -0.43813,0 -0.7966,0.675 -0.7966,1.5 0,0.825 0.5712,1.5 1.26933,1.5 0.74168,0 2.23857,3.51272 3.60097,8.45032 1.28241,4.64768 2.75223,8.59052 3.26627,8.76187 1.16861,0.38954 1.44231,11.09524 0.40362,15.78781 -0.99722,4.50521 -6.11812,15.63491 -8.97217,19.5 -1.21839,1.65 -2.46821,3.69031 -2.77737,4.53401 -0.51449,1.40404 -2.3875,2.45312 -14.29065,8.00422 -7.39532,3.44885 -10.53637,3.4411 -14.71612,-0.0363 z m -6.78388,-16.9429 c 0,-0.51754 -0.40775,-1.19299 -0.90612,-1.501 -0.49837,-0.30801 -0.67088,-1.45956 -0.38337,-2.55902 0.28751,-1.09945 0.0874,-1.999 -0.44479,-1.999 -0.80743,0 -1.03221,3.32727 -0.42224,6.25 0.22779,1.0915 2.15652,0.92069 2.15652,-0.19098 z m -88.25,-26.68931 c 1.2375,-0.33163 2.25,-0.97465 2.25,-1.42892 0,-1.07189 -4.04892,-0.29187 -5.37659,1.0358 -1.16363,1.16363 -0.20046,1.28474 3.12659,0.39312 z m 84.73887,-1.61971 c 0.39717,-1.2375 0.78716,-2.925 0.86663,-3.75 0.0795,-0.825 1.157,-1.6438 2.3945,-1.81955 2.03785,-0.28942 2.26329,-0.9023 2.39091,-6.5 0.3833,-16.81212 -0.15521,-53.36142 -0.79566,-54.00186 -0.47131,-0.47132 -1.73547,-23.11986 -1.62864,-29.17859 0.19823,-11.24227 0.18254,-24.57617 -0.0326,-27.72541 -0.16775,-2.4553 0.22206,-3.90829 1.14337,-4.26183 1.15266,-0.44232 1.17013,-0.81087 0.0996,-2.10081 -1.07151,-1.29108 -1.04751,-1.72577 0.13737,-2.48817 0.98332,-0.6327 1.09344,-1.1601 0.3495,-1.67378 -1.40878,-0.97274 -3.69712,-7.54314 -2.33364,-6.70046 0.62567,0.38668 0.75725,-0.34917 0.35151,-1.96575 -0.40523,-1.61438 -0.23267,-2.58379 0.45987,-2.58379 0.60963,0 1.10841,-0.47236 1.10841,-1.04969 0,-0.70652 -0.57212,-0.72918 -1.75,-0.0693 -1.36438,0.76436 -2.01002,0.49986 -2.93,-1.20031 l -1.18,-2.1807 -1.00662,2.5 c -0.55363,1.375 -1.03513,1.91711 -1.06999,1.20469 -0.0456,-0.93176 -1.03735,-1.1126 -3.53355,-0.64431 -1.90858,0.35805 -5.48605,0.68287 -7.94993,0.72181 -2.46388,0.0389 -4.32086,0.32889 -4.12664,0.64431 0.19423,0.31543 -1.9658,0.62278 -4.80007,0.683 -2.83426,0.0602 -6.5032,0.70151 -8.1532,1.42507 -1.65,0.72356 -4.09373,1.44107 -5.43051,1.59446 -3.66516,0.42057 -15.06949,4.62518 -15.06949,5.5559 0,0.44829 -0.3375,0.70807 -0.75,0.5773 -0.4125,-0.13077 -2.29536,0.40814 -4.18414,1.19759 -2.58971,1.08242 -3.53229,1.14089 -3.83333,0.23777 -0.63824,-1.91472 -1.94704,-1.38817 -2.61587,1.05241 -0.45551,1.66216 -0.8365,1.90963 -1.45828,0.94721 -0.99925,-1.54671 -3.22785,-1.23485 -4.72012,0.66052 -0.58794,0.74675 -2.38957,1.44198 -4.00362,1.54495 -1.61405,0.10297 -4.3716,0.95284 -6.12789,1.8886 -1.98544,1.05786 -3.42616,1.32453 -3.80902,0.70505 -0.84116,-1.36104 -2.55695,-1.26282 -2.24773,0.12867 0.1375,0.61875 -0.3125,1.33125 -1,1.58333 -0.6875,0.25209 -1.25,-0.0292 -1.25,-0.625 0,-0.59583 -0.45,-1.08333 -1,-1.08333 -0.55,0 -1,0.62686 -1,1.39301 0,1.78748 -2.1921,2.60699 -6.97338,2.60699 -3.1306,0 -3.90225,0.40112 -4.32833,2.25 -0.80405,3.48895 -0.63096,12.89356 0.30389,16.51109 0.50782,1.96511 0.47614,3.03453 -0.0797,2.69098 -0.50736,-0.31356 -0.91557,0.019 -0.90715,0.73891 0.0187,1.5987 1.47242,4.01141 2.34649,3.89443 2.37206,-0.31745 3.66649,0.0598 3.1382,0.91459 -0.88808,1.43694 0.82606,1.23225 4.13569,-0.49384 1.57537,-0.82161 3.65181,-1.49661 4.61431,-1.5 0.9625,-0.003 1.75,-0.37267 1.75,-0.82064 0,-0.44796 1.87517,-1.81539 4.16705,-3.03872 3.26827,-1.74451 4.3434,-1.94629 4.98469,-0.93552 0.60385,0.95176 0.82164,0.83115 0.83295,-0.46128 0.011,-1.25773 0.82485,-1.75 2.89319,-1.75 1.58283,0 4.39533,-0.62507 6.25,-1.38905 1.85466,-0.76398 5.73412,-1.70614 8.621,-2.09369 2.88689,-0.38754 5.50095,-1.11247 5.80902,-1.61094 0.30807,-0.49848 1.96064,-0.90632 3.67238,-0.90632 1.71173,0 3.95707,-0.76456 4.98963,-1.69902 2.17858,-1.97159 8.84713,-2.52493 13.52489,-1.12228 2.44437,0.73296 3.98613,0.60315 6.25,-0.52622 1.65286,-0.82455 3.0052,-1.08368 3.0052,-0.57584 0,0.50785 0.5625,0.94165 1.25,0.964 1.75746,0.0571 8.26443,5.77826 7.47258,6.57011 -1.12069,1.12069 1.34643,4.57675 2.85411,3.99819 1.97439,-0.75764 1.78933,1.40293 -0.24775,2.89248 -2.10461,1.53893 -2.68413,4.57211 -0.73029,3.82235 0.77074,-0.29576 1.40135,-0.007 1.40135,0.64081 0,0.6482 -1.0125,1.07826 -2.25,0.95569 -1.2375,-0.12258 -3.51905,0.29608 -5.07012,0.93034 -1.55107,0.63426 -4.13531,0.9215 -5.74277,0.63831 -1.60746,-0.28319 -3.8259,0.0492 -4.92988,0.73864 -1.54791,0.96668 -2.43641,0.98551 -3.88275,0.0823 -1.66173,-1.03777 -2.07584,-0.69472 -3.63287,3.00946 -1.24026,2.95054 -1.88696,3.66579 -2.19781,2.43073 -0.51395,-2.04203 -2.53464,-2.23976 -5.60954,-0.5489 -1.20134,0.66061 -3.07348,1.34831 -4.1603,1.52823 -1.08682,0.17991 -2.34669,0.98941 -2.79969,1.79889 -0.45301,0.80948 -1.43879,1.47178 -2.19063,1.47178 -0.75183,0 -1.51697,0.35418 -1.70031,0.78707 -0.18333,0.43289 -2.44133,2.00957 -5.01777,3.50373 -4.45027,2.58086 -6.98782,2.98127 -9.38753,1.48128 -2.1152,-1.32215 -8.98515,-1.0817 -11.92803,0.41749 -1.65,0.84056 -4.8,1.84808 -7,2.23892 -8.83855,1.57024 -10.10582,1.75182 -12.75,1.82683 -3.0072,0.0853 -3.42125,0.89222 -1.5,2.92325 0.81041,0.85672 1.227,4.31063 1.18461,9.82143 -0.036,4.675 0.17364,8.95 0.46578,9.5 0.29214,0.55 0.54775,2.54294 0.56802,4.42876 0.0303,2.81768 0.49235,3.55057 2.59265,4.11228 2.97735,0.79627 9.93894,-1.84878 9.93894,-3.77629 0,-1.56413 1.23395,-1.6308 2.7179,-0.14685 0.82386,0.82386 1.46578,0.56084 2.44054,-1 0.83407,-1.33555 2.35386,-2.1179 4.11423,-2.1179 1.53536,0 4.31541,-0.6367 6.17789,-1.41489 1.86247,-0.7782 3.64526,-1.15596 3.96175,-0.83947 0.31648,0.31649 1.36569,-0.10935 2.33156,-0.94632 3.10747,-2.69272 10.90499,-6.81713 11.59114,-6.13098 0.36572,0.3657 0.66497,0.13994 0.66497,-0.50172 0,-0.64167 0.69083,-1.16667 1.53518,-1.16667 0.84435,0 2.53185,-0.64096 3.75,-1.42436 5.41334,-3.48134 13.96239,-1.604 18.8457,4.13844 1.30302,1.53226 2.81912,2.83483 3.36912,2.89462 2.34825,0.25524 5.5,1.6924 5.5,2.50793 0,0.48585 0.63287,0.88337 1.40638,0.88337 0.95274,0 1.23118,-0.72576 0.86322,-2.25 -0.38397,-1.59056 0.22964,-1.13792 2.09362,1.54441 3.25964,4.69072 3.27391,5.32887 0.13678,6.11623 -3.00829,0.75504 -3.23739,2.95947 -0.50636,4.87235 2.13916,1.49833 1.7244,2.92978 -0.59141,2.04112 -0.77122,-0.29595 -1.40223,-0.0435 -1.40223,0.56106 0,0.75168 -2.13382,0.90269 -6.75,0.4777 -11.94415,-1.09966 -16.53078,-0.79069 -21.58707,1.45417 -2.66038,1.18114 -7.16038,2.41016 -10,2.73115 -2.83961,0.321 -5.31293,1.00397 -5.49626,1.51772 -0.18334,0.51375 -1.66818,0.93409 -3.29966,0.93409 -1.63148,0 -4.24126,0.65929 -5.79952,1.4651 -1.55825,0.8058 -4.3484,1.68331 -6.20034,1.95002 -1.85193,0.26671 -2.80465,0.24492 -2.11715,-0.0484 1.82414,-0.77834 1.53346,-2.68944 -0.30194,-1.98513 -0.98801,0.37913 -1.3008,0.18919 -0.8608,-0.52275 0.393,-0.63589 0.16737,-0.94369 -0.52306,-0.71354 -0.66781,0.2226 -1.2678,0.84348 -1.33331,1.37973 -0.17487,1.43144 -2.12154,3.33116 -2.91943,2.84901 -0.3787,-0.22884 -1.0537,0.20441 -1.5,0.96277 -0.64518,1.09631 -1.32374,0.87351 -3.31146,-1.08732 -2.41999,-2.38724 -2.42653,-2.42878 -0.20427,-1.29815 2.13182,1.08461 2.20834,1.02808 1.07177,-0.79187 -1.74089,-2.7876 -7.21754,-0.50891 -7.51224,3.12564 -0.10419,1.28503 0.19264,1.50509 1.05961,0.78557 0.7489,-0.62153 2.31631,-0.66731 4.14474,-0.12104 1.61721,0.48317 2.35133,0.91716 1.63137,0.96444 -0.71996,0.0473 -1.05353,0.49933 -0.74127,1.00458 0.31226,0.50524 -0.75878,1.20998 -2.38009,1.56608 -3.25942,0.71589 -3.79676,2.26257 -3.21893,9.26529 0.3116,3.77623 0.63009,4.25 2.85699,4.25 1.63754,0 2.33446,0.44781 2.01055,1.29189 -0.27266,0.71054 0.1292,2.14655 0.89301,3.19113 1.2993,1.77689 1.38876,1.7834 1.38876,0.10112 0,-1.35705 0.42926,-1.59772 1.75,-0.98114 0.9625,0.44933 3.91273,0.72463 6.55606,0.61177 2.98102,-0.12728 4.57249,0.17272 4.19098,0.79001 -0.33829,0.54737 -0.13852,0.99522 0.44394,0.99522 0.58246,0 1.05902,-0.675 1.05902,-1.5 0,-0.825 0.47656,-1.5 1.05902,-1.5 0.58246,0 0.77517,0.45928 0.42824,1.02061 -0.60412,0.9775 6.94037,-1.57439 9.01274,-3.04851 0.55,-0.39123 2.8,-1.06726 5,-1.50229 2.2,-0.43504 4.45,-0.92625 5,-1.09159 0.55,-0.16533 2.5698,-0.587 4.48844,-0.93703 1.91864,-0.35004 4.7352,-1.28116 6.25903,-2.06916 2.00479,-1.03672 3.29828,-1.15032 4.6797,-0.41101 1.05001,0.56195 3.23313,0.75692 4.85138,0.43327 2.84889,-0.56978 4.47521,0.0696 17.95157,7.05745 1.77657,0.9212 3.49062,2.09641 3.80902,2.61158 0.31839,0.51518 1.02889,0.93668 1.57889,0.93668 0.55,0 0.72975,-0.43728 0.39944,-0.97174 -0.33031,-0.53445 1.21813,-9.7e-4 3.44098,1.18553 2.22285,1.18649 4.04155,2.52377 4.04155,2.97173 0,1.73891 1.80399,0.69841 2.48887,-1.43552 z m -15.91403,-42.6289 c -0.30984,-0.50134 0.10906,-1.16956 0.9309,-1.48493 0.82184,-0.31537 1.49426,-0.16408 1.49426,0.3362 0,1.35555 -1.7771,2.19731 -2.42516,1.14873 z m 15.92516,-100.1211 c -0.33992,-0.55 -0.14148,-1 0.44098,-1 0.58246,0 1.05902,0.45 1.05902,1 0,0.55 -0.19844,1 -0.44098,1 -0.24254,0 -0.7191,-0.45 -1.05902,-1 z m -78.5,143 c 0.825,-0.53316 1.05,-0.96937 0.5,-0.96937 -0.55,0 -1.675,0.43621 -2.5,0.96937 -0.825,0.53316 -1.05,0.96937 -0.5,0.96937 0.55,0 1.675,-0.43621 2.5,-0.96937 z m -12,-3 c 0,-0.55 -0.19844,-1 -0.44098,-1 -0.24254,0 -0.7191,0.45 -1.05902,1 -0.33992,0.55 -0.14148,1 0.44098,1 0.58246,0 1.05902,-0.45 1.05902,-1 z m 16,-26.44098 c 0,-0.24254 -0.45,-0.7191 -1,-1.05902 -0.55,-0.33992 -1,-0.14148 -1,0.44098 0,0.58246 0.45,1.05902 1,1.05902 0.55,0 1,-0.19844 1,-0.44098 z m 4,-1 c 0,-0.24254 -0.45,-0.7191 -1,-1.05902 -0.55,-0.33992 -1,-0.14148 -1,0.44098 0,0.58246 0.45,1.05902 1,1.05902 0.55,0 1,-0.19844 1,-0.44098 z m -23,-2.55902 c 0,-0.55 -0.47656,-1 -1.05902,-1 -0.58246,0 -0.7809,0.45 -0.44098,1 0.33992,0.55 0.81648,1 1.05902,1 0.24254,0 0.44098,-0.45 0.44098,-1 z m 9.66145,-1.90899 c 4.33391,-1.39058 5.01107,-1.9248 4.22355,-3.33202 -0.51646,-0.92286 -1.60002,-1.42184 -2.41145,-1.11047 -0.92134,0.35355 -1.47355,-0.0368 -1.47355,-1.04153 0,-0.88385 -0.36029,-1.60699 -0.80064,-1.60699 -2.12306,0 -6.21673,2.74573 -7.15203,4.79705 -1.49163,3.2715 -1.32962,3.51408 1.17518,1.75965 1.22237,-0.85618 3.13487,-1.52818 4.25,-1.49331 1.84597,0.0577 1.81942,0.14681 -0.29658,0.99517 -1.27824,0.51249 -3.30324,1.66433 -4.5,2.55966 -1.96001,1.46633 -1.97747,1.55349 -0.17593,0.87837 1.1,-0.41222 4.32265,-1.49473 7.16145,-2.40558 z m 12.76434,-7.42379 c -1.00093,-2.60838 -2.20316,-1.95341 -1.65715,0.90281 0.29227,1.52893 0.85702,2.20431 1.39411,1.66722 0.49655,-0.49655 0.61492,-1.65306 0.26304,-2.57003 z m 106.93584,1.83278 c 0.31658,-0.825 0.13972,-1.5 -0.39301,-1.5 -0.53274,0 -0.96862,0.675 -0.96862,1.5 0,0.825 0.17686,1.5 0.39301,1.5 0.21616,0 0.65203,-0.675 0.96862,-1.5 z m -112.86163,-1.5 c 0.33992,-0.55 0.14148,-1 -0.44098,-1 -0.58246,0 -1.05902,0.45 -1.05902,1 0,0.55 0.19844,1 0.44098,1 0.24254,0 0.7191,-0.45 1.05902,-1 z m 112.72855,-4.76597 c 0.25399,-0.97128 0.11311,-2.65878 -0.31309,-3.75 -0.59024,-1.51126 -0.79164,-1.09044 -0.84517,1.76597 -0.0753,4.0182 0.40925,4.84824 1.15826,1.98403 z m -146.86692,-5.73403 c 0.31658,-0.825 0.13972,-1.5 -0.39301,-1.5 -0.53274,0 -0.96862,0.675 -0.96862,1.5 0,0.825 0.17686,1.5 0.39301,1.5 0.21616,0 0.65203,-0.675 0.96862,-1.5 z m -0.0123,-5.03203 c -0.79322,-2.06711 -1.34933,-1.82352 -1.34933,0.59105 0,1.13246 0.43035,1.79305 0.95633,1.46797 0.52598,-0.32507 0.70283,-1.25163 0.39301,-2.05902 z m 18.65067,-17.99139 c 2.475,-0.34302 4.95,-1.07242 5.5,-1.62089 0.66506,-0.66321 0.0494,-0.76234 -1.83799,-0.29596 -1.56089,0.38569 -4.56074,0.74643 -6.66633,0.80164 -2.10558,0.0552 -3.63819,0.40805 -3.40578,0.78409 0.23241,0.37605 -0.14274,0.943 -0.83367,1.2599 -0.69093,0.3169 -0.35623,0.37789 0.74377,0.13554 1.1,-0.24235 4.025,-0.72129 6.5,-1.06432 z m 21.72917,-4.08075 c -0.33229,-0.33229 -1.1948,-0.36781 -1.91667,-0.0789 -0.79773,0.31922 -0.56078,0.55618 0.60417,0.60416 1.05416,0.0434 1.64479,-0.19293 1.3125,-0.52522 z m 86.50071,-39.59238 c 0.17134,-7.523 0.62747,-13.99413 1.01363,-14.3803 0.38617,-0.38616 0.39929,-1.19209 0.0292,-1.79096 -0.37012,-0.59887 -0.7659,-2.8986 -0.87952,-5.11052 -0.33,-6.42424 -0.34924,-6.52167 -1.28815,-6.52167 -1.22265,0 -1.86744,7.67318 -0.80441,9.5727 0.53856,0.96236 0.36319,2.13077 -0.47164,3.14228 -1.03863,1.25845 -1.05763,1.7016 -0.087,2.02831 0.90484,0.30456 0.96316,0.93909 0.21482,2.33738 -0.72191,1.34889 -0.70199,1.91933 0.067,1.91933 0.60181,0 0.7856,0.49932 0.40843,1.10961 -0.85106,1.37705 -1.27169,8.89053 -0.49769,8.89001 0.31099,-2.1e-4 0.50897,3.18375 0.43997,7.07546 -0.069,3.89172 0.25012,6.70026 0.70918,6.2412 0.45906,-0.45906 0.97483,-6.98983 1.14616,-14.51283 z m 18.45323,-11.99095 c -0.31922,-0.79773 -0.55618,-0.56078 -0.60416,0.60417 -0.0434,1.05416 0.19293,1.64479 0.52522,1.3125 0.33229,-0.33229 0.36781,-1.1948 0.0789,-1.91667 z m -23.68311,-1.8125 c 0,-0.55 -0.19844,-1 -0.44098,-1 -0.24254,0 -0.7191,0.45 -1.05902,1 -0.33992,0.55 -0.14148,1 0.44098,1 0.58246,0 1.05902,-0.45 1.05902,-1 z m 28.29011,-1.00138 c 0.28785,-1.10076 0.11534,-1.7492 -0.38337,-1.44098 -0.49871,0.30822 -0.90674,1.20884 -0.90674,2.00138 0,2.06975 0.6795,1.77459 1.29011,-0.5604 z M 536.03924,463.40369 c 0.33992,-0.55 0.14148,-1 -0.44098,-1 -0.58246,0 -1.05902,0.45 -1.05902,1 0,0.55 0.19844,1 0.44098,1 0.24254,0 0.7191,-0.45 1.05902,-1 z m 57.5,-14 c 0,-0.55 -0.42344,-1 -0.94098,-1 -0.51754,0 -1.2191,0.45 -1.55902,1 -0.33992,0.55 0.0835,1 0.94098,1 0.85746,0 1.55902,-0.45 1.55902,-1 z"
       id="path416" /><path
       style="fill:#ffffff;fill-opacity:1"
       d="m 661.26194,762.41057 c -0.27159,-0.43944 -0.87317,-0.56452 -1.33685,-0.27795 -1.18474,0.73221 -14.46786,-2.15826 -20.86045,-4.53932 -6.06028,-2.25729 -10.39193,-5.5478 -5.7791,-4.39005 1.64705,0.41338 2.6208,0.24595 2.6208,-0.45063 0,-0.60963 -1.0125,-1.16584 -2.25,-1.23603 -1.2375,-0.0702 -3.27728,-0.23446 -4.53285,-0.36504 -2.19796,-0.22859 -2.21756,-0.16528 -0.52715,1.7026 1.70733,1.88659 1.67381,1.92049 -1.21715,1.23073 -1.63507,-0.39011 -3.73199,-1.36793 -4.65984,-2.17294 -0.92784,-0.80501 -2.1269,-1.19177 -2.66459,-0.85946 -0.53768,0.3323 -1.12853,0.15918 -1.31301,-0.38472 -0.18448,-0.54391 -2.02201,-1.10921 -4.08341,-1.25623 -2.06139,-0.14703 -3.74889,-0.54024 -3.75,-0.8738 -10e-4,-0.33357 -1.2395,-0.61252 -2.752,-0.61991 -3.97999,-0.0194 -14.11067,-2.84919 -18.71144,-5.22658 -2.17879,-1.12587 -4.55485,-2.04703 -5.28013,-2.04703 -0.72528,0 -3.89264,-1.0582 -7.03856,-2.35156 -8.27832,-3.40339 -9.66206,-3.96004 -10.21987,-4.11123 -3.14023,-0.85115 -4.91157,-1.86438 -5.37623,-3.07528 -0.30855,-0.80406 -1.05168,-1.46193 -1.6514,-1.46193 -0.59972,0 -0.81229,0.45 -0.47237,1 0.33992,0.55 -0.0835,1 -0.94098,1 -0.85746,0 -1.55902,-0.41383 -1.55902,-0.91963 0,-0.5058 -2.33957,-1.69672 -5.19904,-2.64648 -2.85947,-0.94976 -6.09432,-2.56093 -7.18856,-3.58037 -1.09424,-1.01943 -2.91717,-1.85629 -4.05096,-1.85968 -1.13379,-0.003 -3.39698,-0.70257 -5.02931,-1.55373 -1.72438,-0.89916 -3.9972,-1.28922 -5.42463,-0.93096 -2.14101,0.53736 -2.29006,0.41575 -1.15969,-0.94627 0.71339,-0.85958 1.01698,-1.61913 0.67463,-1.68788 -0.34234,-0.0688 -0.95994,-0.20011 -1.37244,-0.29192 -0.4125,-0.0918 -2.325,-1.03788 -4.25,-2.10239 -1.925,-1.06451 -6.2,-3.31874 -9.5,-5.0094 -3.3,-1.69065 -6,-3.57583 -6,-4.18927 0,-0.61344 -0.3375,-1.45285 -0.75,-1.86535 -0.4125,-0.4125 -0.75,0.0551 -0.75,1.03911 0,1.50126 -0.24895,1.5825 -1.54733,0.50494 -1.11559,-0.92586 -1.22353,-1.4843 -0.38685,-2.0014 0.84345,-0.52128 0.78808,-0.86609 -0.20267,-1.26214 -1.11789,-0.44687 -1.09327,-0.73578 0.13685,-1.60574 1.20716,-0.85372 0.957,-1.0638 -1.28138,-1.07613 -1.53368,-0.008 -3.03861,-0.68562 -3.35479,-1.50957 -0.31537,-0.82184 -1.04578,-1.20231 -1.62312,-0.84549 -0.65644,0.4057 -0.74732,0.15947 -0.24258,-0.65723 0.64066,-1.0366 1.05391,-0.96854 2.00339,0.32995 0.65793,0.89977 1.47398,1.3582 1.81345,1.01873 0.72496,-0.72496 -3.62767,-4.3517 -5.2227,-4.3517 -0.60075,0 -0.97977,-0.54819 -0.84227,-1.2182 0.165,-0.80401 -0.85501,-1.11839 -3,-0.92464 -2.17412,0.19639 -3.25507,-0.14518 -3.26531,-1.03179 -0.0114,-0.98386 -0.26509,-0.93887 -0.98469,0.17463 -0.8354,1.29269 -0.97149,1.26629 -0.98469,-0.19098 -0.0187,-2.06184 1.50039,-3.08231 5.18946,-3.48618 3.61951,-0.39624 3.66124,1.41313 0.0452,1.96091 -2.60606,0.39478 -2.58298,0.42443 0.44098,0.56642 1.75504,0.0824 3.4691,-0.30017 3.80902,-0.85017 0.33992,-0.55 1.04148,-1 1.55902,-1 1.39722,0 1.14024,2.75659 -0.30902,3.31475 -0.6875,0.26477 -0.2375,0.43151 1,0.37053 1.2375,-0.061 2.25,-0.55513 2.25,-1.09808 0,-0.54296 0.54,-0.4472 1.2,0.2128 0.66,0.66 1.64601,1.2 2.19113,1.2 0.54512,0 0.12258,-0.6351 -0.93897,-1.41132 -1.06156,-0.77623 -2.26741,-1.20286 -2.67968,-0.94807 -0.41226,0.2548 -0.46602,-0.27566 -0.11946,-1.17879 0.48815,-1.27207 0.0913,-1.58825 -1.76145,-1.40325 -1.31536,0.13134 -3.17907,-0.10125 -4.14157,-0.51687 -0.9625,-0.41562 -2.35331,-0.52417 -3.09068,-0.24121 -0.73738,0.28296 -1.92915,0.15078 -2.64838,-0.29373 -0.80818,-0.49948 -2.0937,-0.0759 -3.3654,1.10884 -2.03256,1.89362 -2.07226,1.88984 -3.24952,-0.3099 -0.65551,-1.22481 -2.69325,-3.03216 -4.52832,-4.01632 -2.76264,-1.48163 -2.96233,-1.78938 -1.16109,-1.78938 2.82369,0 4.04077,-2.00226 1.93382,-3.18137 -0.90222,-0.5049 -1.6404,-1.5225 -1.6404,-2.26133 0,-0.73883 -0.675,-1.60234 -1.5,-1.91893 -0.88074,-0.33797 -1.5,-0.0135 -1.5,0.78603 0,0.74889 -0.69837,1.62961 -1.55194,1.95716 -0.9258,0.35526 -1.29452,0.17903 -0.91391,-0.43682 0.35092,-0.56779 0.0368,-1.77189 -0.69806,-2.67578 -1.1572,-1.42338 -1.10178,-1.55561 0.41391,-0.98758 0.9625,0.36072 1.75,0.26876 1.75,-0.20436 0,-1.17232 -4.82515,-2.30311 -6.2005,-1.45311 -0.64851,0.4008 -0.82794,0.23113 -0.4324,-0.40888 0.41065,-0.66444 -0.1008,-1.03546 -1.30258,-0.94494 -1.08829,0.082 -1.77203,0.35573 -1.51943,0.60833 0.2526,0.2526 -0.32921,1.3596 -1.29291,2.45999 -1.63301,1.86464 -1.63533,1.95815 -0.0342,1.37483 0.94489,-0.34424 1.98395,-0.19555 2.30902,0.33043 0.64836,1.04907 -2.80744,1.34255 -3.82514,0.32485 -0.34732,-0.34732 -0.2118,-1.41568 0.30116,-2.37414 0.69946,-1.30695 0.38245,-2.21165 -1.26795,-3.61851 -1.95285,-1.66469 -2.04406,-1.67408 -0.81021,-0.0835 1.05313,1.35762 1.10959,2.07318 0.23277,2.95 -0.87683,0.87683 -1.15762,0.85223 -1.15762,-0.1014 0,-0.69246 -0.41891,-1.00012 -0.9309,-0.68369 -0.512,0.31644 -1.25653,0.0485 -1.65451,-0.59549 -0.45192,-0.73122 -0.29014,-0.90292 0.4309,-0.45729 0.63497,0.39245 1.1545,0.23698 1.1545,-0.34548 0,-0.58246 -0.9,-1.05902 -2,-1.05902 -1.1,0 -2,-0.45 -2,-1 0,-0.55 0.47656,-1 1.05902,-1 0.58246,0 0.76426,-0.47693 0.404,-1.05984 -0.41446,-0.6706 -1.13092,-0.40901 -1.95081,0.71225 -1.14896,1.5713 -1.49923,1.6064 -3.09123,0.30984 -1.59339,-1.29769 -1.72838,-1.28288 -1.19951,0.13163 0.47032,1.2579 0.0688,1.49311 -1.90472,1.11584 -1.56177,-0.29855 -2.05919,-0.75086 -1.32485,-1.20471 0.81339,-0.50271 0.61056,-0.96648 -0.65805,-1.50469 -2.85558,-1.21148 -5.77151,-1.32282 -6.46477,-0.24686 -0.39935,0.61982 -1.3169,0.54178 -2.5,-0.21263 -1.04605,-0.66703 -1.20625,-0.9936 -0.36382,-0.74163 0.8279,0.24761 2.16316,-0.25407 2.96725,-1.11485 1.29281,-1.38396 1.26327,-1.48881 -0.25527,-0.90609 -0.94448,0.36243 -1.71724,0.19654 -1.71724,-0.36866 0,-0.5652 -0.41891,-0.76874 -0.9309,-0.45231 -0.512,0.31644 -1.21356,0.11799 -1.55902,-0.44098 -0.34546,-0.55897 -1.10666,-1.01631 -1.69154,-1.01631 -0.6631,0 -0.58723,0.57378 0.20152,1.52417 0.69572,0.83829 0.97582,1.81329 0.62244,2.16666 -0.35337,0.35338 -0.6425,0.12129 -0.6425,-0.51575 0,-0.71633 -1.24001,-1.01641 -3.25,-0.7865 -2.5257,0.28889 -3.23373,0.8309 -3.177,2.43204 0.0599,1.6904 -0.25429,1.88513 -1.75,1.08465 -1.00265,-0.5366 -1.823,-1.39568 -1.823,-1.90907 0,-0.51339 -0.68989,-0.66869 -1.53309,-0.34513 -1.28783,0.49419 -1.35729,0.20246 -0.43419,-1.82353 1.24232,-2.72661 5.55554,-3.8029 4.53,-1.1304 -0.50837,1.3248 -0.35607,1.37625 0.92548,0.31266 1.36979,-1.13683 1.347,-1.40982 -0.2129,-2.55044 -1.18207,-0.86436 -2.31728,-0.97208 -3.51109,-0.33317 -1.11127,0.59473 -1.76421,0.5919 -1.76421,-0.008 0,-0.52352 0.46125,-1.1806 1.025,-1.46019 0.56375,-0.27958 0.45125,-0.39011 -0.25,-0.24562 -0.70125,0.14449 -1.28351,1.34824 -1.2939,2.675 -0.0208,2.64785 -2.55442,3.36482 -3.2239,0.91229 -0.35779,-1.3107 -0.28052,-1.31436 0.6123,-0.029 1.40502,2.02284 2.07594,1.00056 1.07621,-1.63982 -0.59635,-1.575 -1.52268,-2.09177 -3.38344,-1.88751 -1.40925,0.15506 -2.56227,-0.0762 -2.56227,-0.51347 0,-1.00468 -4.04493,-2.41107 -5.89352,-2.04912 -0.76644,0.15006 -1.7602,-0.32046 -2.20836,-1.0456 -0.64299,-1.04038 -1.07318,-1.06009 -2.03981,-0.0935 -1.57771,1.57771 -0.933,2.15749 2.86098,2.57284 1.69109,0.18513 3.8282,1.0901 4.74913,2.01104 0.92094,0.92094 2.09229,1.67443 2.60301,1.67443 0.51071,0 0.91426,0.7875 0.89677,1.75 -0.0278,1.53041 -0.18466,1.56178 -1.25,0.25 -1.46498,-1.80387 -4.69274,-2.23515 -4.78159,-0.63889 -0.0349,0.62639 -0.47036,0.12639 -0.96777,-1.11111 -0.49742,-1.2375 -1.48139,-2.24311 -2.18662,-2.23469 -0.89766,0.0107 -0.83235,0.30604 0.21778,0.98469 1.2819,0.82843 1.24555,0.9716 -0.25,0.98469 -0.9625,0.008 -1.75,-0.44326 -1.75,-1.00374 0,-1.18643 -4.82679,-0.23706 -6.82622,1.34264 -0.95515,0.75464 -1.61107,0.64612 -2.34433,-0.38789 -0.82659,-1.16562 -0.91452,-1.11251 -0.46746,0.28227 0.71068,2.2172 -0.51175,2.95126 -2.08269,1.25064 -0.96094,-1.04027 -0.96094,-1.41693 0,-1.77004 0.90025,-0.33082 0.92819,-0.76077 0.10641,-1.63786 -0.85647,-0.91412 -1.47027,-0.8333 -2.65287,0.34931 -1.34277,1.34276 -1.61059,1.35094 -2.10433,0.0643 -0.31116,-0.81086 -1.14236,-1.46741 -1.84713,-1.45899 -0.99186,0.0119 -0.97694,0.20825 0.066,0.86922 1.04753,0.66386 0.7137,1.44228 -1.5,3.49765 -2.59145,2.40611 -2.95695,2.49441 -4.06614,0.9824 -1.05369,-1.43635 -1.44694,-1.47197 -2.9037,-0.26296 -0.92672,0.76911 -1.83175,1.30162 -2.01118,1.18337 -0.59334,-0.39107 -6.35361,3.20002 -6.36006,3.96501 -0.003,0.4125 -0.60528,0.75 -1.33734,0.75 -0.73206,0 -1.92911,1.11754 -2.66011,2.48343 -1.19687,2.23636 -2.45495,3.07989 -5.50887,3.69362 -0.55,0.11053 -2.06849,0.7553 -3.37442,1.43282 -1.30593,0.67753 -2.89445,1.03232 -3.53003,0.78842 -0.67025,-0.25719 -1.24917,0.68723 -1.3784,2.24863 -0.31482,3.80389 -0.88737,4.01152 -3.72109,1.34938 -1.37283,-1.28971 -2.55231,-2.04149 -2.62106,-1.67061 -0.0688,0.37087 -0.18125,1.23681 -0.25,1.92431 -0.0688,0.6875 -1.13528,1.39351 -2.37006,1.5689 -1.55816,0.22133 -2.08571,-0.0963 -1.72426,-1.03825 0.28643,-0.74644 -0.91039,-2.68994 -2.65961,-4.3189 -1.74922,-1.62896 -2.85924,-2.39925 -2.46671,-1.71175 0.43408,0.7603 0.12931,1.25 -0.77796,1.25 -1.61677,0 -3.11742,-3.39649 -2.17464,-4.92195 0.31948,-0.51692 0.11618,-1.22704 -0.45176,-1.57805 -0.56794,-0.35101 -0.7139,-1.1696 -0.32435,-1.8191 0.38955,-0.64949 -0.0736,-0.54633 -1.02914,0.22926 -1.54602,1.25483 -2.10021,1.03452 -5.03118,-2 -4.18126,-4.329 -6.9102,-5.91014 -10.20053,-5.91014 -2.52603,0 -9.11675,-5.63136 -7.95287,-6.79524 0.2864,-0.28641 0.0349,-1.1061 -0.55884,-1.82155 -0.82658,-0.99597 -0.48635,-1.4497 1.45184,-1.93615 1.39228,-0.34944 2.91598,-0.39767 3.386,-0.10719 0.47002,0.29049 1.5081,0.11475 2.30684,-0.39054 1.20469,-0.7621 1.15394,-0.92131 -0.29775,-0.93402 -0.9625,-0.008 -1.75,-0.49187 -1.75,-1.07433 0,-0.58246 0.45,-0.7809 1,-0.44098 0.55,0.33992 1.03553,-0.19602 1.07895,-1.19098 0.0434,-0.99496 0.29749,-1.2718 0.56461,-0.6152 0.53171,1.30705 1.52973,1.07612 8.60644,-1.99138 2.6125,-1.13242 4.75,-2.39298 4.75,-2.80124 0,-0.40826 1.34732,-1.03821 2.99404,-1.39989 1.64673,-0.36168 3.36429,-1.3192 3.81681,-2.12781 0.45252,-0.80861 1.80521,-1.5442 3.00596,-1.63465 1.20075,-0.0904 2.18319,-0.48294 2.18319,-0.8722 0,-0.60421 4.32128,-1.92681 6.73335,-2.06085 0.42166,-0.0234 1.65428,-0.66432 2.73916,-1.4242 1.08487,-0.75988 2.92237,-1.3816 4.08333,-1.3816 1.16095,0 2.41999,-0.30917 2.79786,-0.68704 0.77478,-0.77477 2.77634,-1.09946 10.55357,-1.71195 2.97399,-0.23421 6.14392,-1.05659 7.04428,-1.82749 0.90035,-0.77091 2.40876,-1.6978 3.352,-2.05976 0.94325,-0.36196 1.65754,-1.00813 1.5873,-1.43593 -0.35561,-2.16613 0.29767,-2.4172 2.08372,-0.80084 1.91139,1.72978 2.00535,1.70604 2.93605,-0.74191 0.52881,-1.39088 0.92142,-3.93782 0.87246,-5.65987 -0.0564,-1.98486 0.60758,-3.65825 1.81395,-4.57131 1.1903,-0.9009 1.41274,-1.4522 0.59395,-1.4721 -0.71996,-0.0175 -1.00667,-0.521 -0.63714,-1.11892 0.36953,-0.59791 1.53958,-0.86021 2.6001,-0.58287 1.98929,0.52021 1.98504,0.58043 0.35802,-5.08001 -0.82251,-2.86152 0.12671,-5.89737 2.07804,-6.64616 0.85991,-0.32998 1.24996,-0.1539 0.90292,0.40761 -0.33602,0.5437 -0.1344,0.98855 0.44806,0.98855 0.97104,0 1.47219,-1.38327 1.17744,-3.25 -0.0651,-0.4125 0.38036,-0.75 0.98999,-0.75 0.6643,0 0.87193,-0.9422 0.51821,-2.35154 -0.32461,-1.29335 -0.28923,-2.65252 0.0786,-3.02037 0.36785,-0.36786 0.73849,-1.44717 0.82364,-2.39846 0.0851,-0.9513 0.47575,-3.55466 0.86802,-5.78526 l 0.71321,-4.05562 -3.6611,0.42741 c -3.23523,0.37769 -3.59068,0.20552 -3.05568,-1.48009 0.45783,-1.4425 0.11802,-1.9075 -1.39396,-1.9075 -1.09966,0 -1.99938,0.26949 -1.99938,0.59885 0,1.36329 -9.47201,0.97648 -12.61544,-0.51518 -3.46056,-1.64214 -5.90584,-4.85977 -4.91349,-6.46543 0.30995,-0.50151 -0.51644,-3.30471 -1.83642,-6.22933 -3.92825,-8.70366 -4.10922,-9.81748 -1.59502,-9.81748 1.47844,0 1.99808,-0.45942 1.62357,-1.43539 -0.30295,-0.78947 -0.2386,-1.57697 0.14301,-1.75 0.3816,-0.17304 1.38517,-1.66461 2.23015,-3.31461 0.84498,-1.65 2.75748,-3.58705 4.25,-4.30457 2.81031,-1.35102 3.86578,-3.57476 1.21367,-2.55706 -0.825,0.31659 -1.5,0.12561 -1.5,-0.42439 0,-0.55 0.61547,-1.23618 1.36772,-1.52485 1.85718,-0.71266 2.72867,-5.85041 1.29362,-7.62636 -0.93986,-1.16314 -0.83731,-1.31588 0.53773,-0.80093 1.1416,0.42753 1.53732,0.21478 1.20607,-0.64843 -0.27115,-0.70661 0.25211,-3.47941 1.1628,-6.16179 1.14862,-3.38318 1.31523,-4.99056 0.54393,-5.24766 -0.61153,-0.20385 -1.11187,-0.80968 -1.11187,-1.34631 0,-0.53663 0.36188,-0.75203 0.80417,-0.47868 0.44229,0.27335 1.30247,-0.82314 1.9115,-2.43666 0.64981,-1.72153 0.73072,-3.16642 0.19583,-3.497 -1.42229,-0.87903 -1.06961,-2.44321 0.42183,-1.87089 1.57848,0.60572 1.86885,-2.47258 0.40792,-4.32442 -1.11835,-1.41758 -5.1619,-1.73964 -4.29833,-0.34235 0.30853,0.4992 0.0997,1.9617 -0.46398,3.25 -0.95576,2.18425 -0.98693,2.15107 -0.46186,-0.49144 0.35973,-1.81039 0.1916,-2.6042 -0.46554,-2.19806 -0.63993,0.3955 -0.77327,-0.0452 -0.35285,-1.16621 0.58023,-1.54718 0.44981,-1.61835 -0.92243,-0.50338 -1.14755,0.93239 -1.79253,0.98413 -2.28737,0.18347 -0.37904,-0.6133 -0.5316,-1.19765 -0.33903,-1.29856 4.38794,-2.29925 6.4086,-3.82932 6.65953,-5.04267 0.20452,-0.98897 -3.35018,0.3891 -10.48765,4.06581 -8.73514,4.49971 -11.99294,5.65784 -17.05938,6.06453 -6.37142,0.51143 -6.82773,0.25788 -6.33701,-3.52114 0.0893,-0.6875 -0.5324,-1.25 -1.38151,-1.25 -0.84911,0 -1.54384,0.45 -1.54384,1 0,0.55 -0.49814,1 -1.10699,1 -0.60884,0 -0.82874,-0.7251 -0.48866,-1.61134 0.44245,-1.153 0.18844,-1.44638 -0.89301,-1.03139 -0.91643,0.35167 -1.51134,0.0142 -1.51134,-0.85727 0,-0.8667 -0.59545,-1.20873 -1.5,-0.86163 -0.825,0.31659 -1.5,0.0509 -1.5,-0.5904 0,-0.6413 -0.45734,-0.88335 -1.01631,-0.53789 -0.55897,0.34546 -0.7606,1.04187 -0.44806,1.54756 0.31253,0.5057 -0.13013,0.65146 -0.98369,0.32392 -0.85357,-0.32755 -1.55194,-1.02395 -1.55194,-1.54757 0,-0.52361 0.45,-0.67391 1,-0.33399 0.55,0.33992 1,0.1855 1,-0.34316 0,-0.52865 -1.35,-1.4318 -3,-2.007 -2.24514,-0.78265 -3.00385,-0.74436 -3.01531,0.15218 -0.01,0.7518 -0.28894,0.82554 -0.75,0.19798 -0.40408,-0.55 -2.90457,-2.125 -5.55664,-3.5 -2.65207,-1.375 -5.33724,-3.175 -5.96703,-4 -0.6298,-0.825 -0.77615,-1.19123 -0.32523,-0.81384 0.45092,0.37738 1.88265,0.28208 3.18163,-0.21179 1.44188,-0.54821 2.58994,-0.52878 2.94757,0.0499 0.32218,0.5213 1.35061,0.79913 2.2854,0.61739 8.28266,-1.61027 18.98209,-5.63241 19.65623,-7.38918 0.38542,-1.00439 0.0472,-1.05727 -1.49238,-0.23332 -1.42345,0.76181 -2.48565,0.74689 -3.72749,-0.0524 -1.5569,-1.00203 -1.52964,-1.05482 0.26325,-0.50973 1.43211,0.43539 1.14816,-0.0856 -1,-1.83486 -1.65,-1.3436 -2.775,-2.61903 -2.5,-2.83429 0.275,-0.21526 3.2,-1.20929 6.5,-2.20897 8.11766,-2.4591 11.8973,-4.4607 26.5,-14.03379 15.42491,-10.1121 25.97425,-19.16196 25.98924,-22.29513 0.008,-1.71589 0.59021,-2.25 2.45174,-2.25 2.54058,0 3.98739,-1.43513 4.03259,-4 0.0145,-0.825 0.73969,-1.44987 1.61145,-1.38861 0.87175,0.0613 2.44675,-1.19218 3.5,-2.78544 1.08126,-1.63566 2.58088,-2.72958 3.44451,-2.51267 0.84124,0.21129 2.09798,-0.22436 2.79276,-0.96812 1.5859,-1.69771 3.63001,-0.6998 17.80037,8.68993 5.63389,3.7332 11.17357,7.08285 12.31039,7.44366 1.13682,0.36081 2.06695,1.3007 2.06695,2.08864 0,0.78793 0.41783,1.43261 0.9285,1.43261 2.03273,0 12.41008,10.79876 14.89513,15.5 1.45364,2.75 2.67129,5.45 2.7059,6 0.0346,0.55 0.60532,1.98421 1.26824,3.18713 0.66291,1.20292 1.35823,3.58403 1.54514,5.29137 0.18691,1.70734 0.86122,3.62563 1.49846,4.26287 1.74903,1.74903 1.39842,2.75863 -0.958,2.75863 -1.62889,0 -1.99532,0.46388 -1.5902,2.01309 0.56472,2.15947 -2.49688,4.59708 -4.34177,3.45687 -0.554,-0.34239 -1.87973,0.4243 -2.94607,1.70376 -1.63591,1.96286 -1.94399,2.05289 -1.97206,0.57628 -0.0404,-2.12621 -2.03327,-2.37124 -2.03327,-0.24999 0,2.6908 -0.12419,2.98999 -1.57895,3.80412 -0.79029,0.44227 -1.94857,0.48789 -2.57396,0.10138 -0.77827,-0.481 -0.98032,0.11721 -0.64033,1.89577 0.31342,1.63953 -0.002,2.78996 -0.85501,3.11724 -0.74346,0.2853 -1.35175,-0.007 -1.35175,-0.64989 0,-0.87406 -0.30248,-0.86614 -1.2,0.0314 -0.66,0.66 -1.96186,1.2 -2.89301,1.2 -0.93116,0 -1.96995,0.72169 -2.30843,1.60375 -0.33848,0.88207 -1.24938,1.36048 -2.02423,1.06315 -0.77485,-0.29734 -1.66788,0.13449 -1.98451,0.95962 -0.31663,0.82514 -0.99778,1.23938 -1.51366,0.92055 -0.51588,-0.31883 -1.22062,-0.12235 -1.56608,0.43662 -0.98132,1.58782 -2.51457,1.19159 -1.87171,-0.48369 0.31659,-0.825 1.08996,-1.50109 1.71862,-1.50243 0.74205,-0.002 1.16567,-2.45712 1.20761,-7 0.0355,-3.84868 -0.27133,-6.99759 -0.6819,-6.99759 -1.11912,0 -4.8827,5.59473 -4.8827,7.25835 0,0.79728 -1.10857,2.64577 -2.46349,4.10776 -1.35492,1.46198 -3.01408,4.49582 -3.68701,6.74187 -1.09247,3.64636 -3.58908,5.88581 -7.03258,6.30823 -0.3757,0.0461 -2.4007,2.33379 -4.5,5.08379 -2.09931,2.75 -4.15442,5.15 -4.56692,5.33333 -0.4125,0.18334 -0.75,0.97084 -0.75,1.75 0,0.77917 -0.4151,1.41667 -0.92245,1.41667 -0.50734,0 -1.44224,1.575 -2.07755,3.5 -0.63531,1.925 -1.48621,3.5 -1.89091,3.5 -0.40469,0 -1.35378,1.575 -2.10909,3.5 -0.75531,1.925 -1.7393,3.5 -2.18665,3.5 -0.44734,0 -0.81335,0.6199 -0.81335,1.37756 0,0.75765 -0.62637,1.89739 -1.39194,2.53275 -0.76556,0.63537 -1.61838,2.02114 -1.89514,3.0795 -0.39215,1.49956 0.267,2.17849 2.98629,3.07594 4.28432,1.41395 10.20108,5.09618 10.25846,6.38425 0.0233,0.5225 -0.44562,0.46205 -1.042,-0.13433 -1.12521,-1.12521 -4.91567,-0.63029 -4.91567,0.64183 0,0.90943 10.87694,3.49213 13.286,3.15473 2.68171,-0.37559 10.77186,2.98514 10.03931,4.17043 -0.34888,0.5645 -0.14934,0.72662 0.44341,0.36028 1.08801,-0.67243 8.43021,3.07282 9.0846,4.63405 0.19433,0.46361 1.39299,1.96476 2.6637,3.33588 2.09036,2.25554 2.26241,3.17833 1.8066,9.69004 -0.27708,3.9584 -0.90935,7.68849 -1.40503,8.2891 -0.49568,0.6006 -0.60514,1.3881 -0.24325,1.75 0.3619,0.36189 0.13299,0.65799 -0.50867,0.65799 -0.64167,0 -1.16667,0.83931 -1.16667,1.86514 0,1.02583 -0.91408,3.02721 -2.0313,4.44752 -1.11721,1.4203 -3.1752,5.08099 -4.5733,8.13485 -1.39811,3.05387 -2.6919,5.55249 -2.87509,5.55249 -0.61455,0 0.75733,-4.48567 1.76557,-5.77289 0.75518,-0.96416 0.55909,-1.10485 -0.80848,-0.58006 -1.24237,0.47674 -1.57997,0.32793 -1.08243,-0.47711 0.39769,-0.64347 0.21618,-1.16994 -0.40334,-1.16994 -0.67133,0 -0.86995,0.80801 -0.49163,2 0.37832,1.19199 0.1797,2 -0.49163,2 -0.61952,0 -0.84829,-0.45 -0.50837,-1 0.33992,-0.55 0.12564,-1 -0.47617,-1 -0.7869,0 -0.79145,-0.56568 -0.0162,-2.01427 0.82849,-1.54805 0.77877,-1.95311 -0.21482,-1.75 -2.73095,0.55825 -5.29747,6.10024 -6.35416,13.7208 -0.26361,1.9011 -1.13256,4.45354 -1.93099,5.67211 -0.79843,1.21856 -1.70886,3.67525 -2.02316,5.45931 -0.31431,1.78405 -0.73393,3.50661 -0.9325,3.82789 -0.65632,1.06196 5.32599,0.60616 6.4214,-0.48925 0.59037,-0.59037 1.27376,-2.11376 1.51864,-3.38531 0.24488,-1.27154 0.68434,-2.55101 0.97659,-2.84325 0.97629,-0.97629 0.546,2.67574 -0.61566,5.2253 -0.84943,1.86429 -0.8556,2.86859 -0.0238,3.87085 0.80613,0.97132 0.81752,1.65912 0.0404,2.43628 -0.77716,0.77716 -0.55871,1.03864 0.77379,0.92621 1.02117,-0.0862 1.74417,0.40583 1.60667,1.09333 -0.31832,1.59159 1.9761,1.6239 3.55,0.05 0.82051,-0.82051 1.2,-0.85012 1.2,-0.0936 0,0.60851 0.84921,0.88431 1.88714,0.61288 1.03793,-0.27142 2.18949,-0.004 2.55902,0.59362 0.36953,0.59792 1.54532,1.08712 2.61286,1.08712 1.06754,0 2.85739,0.91641 3.97745,2.03647 1.12007,1.12007 2.41352,1.80346 2.87434,1.51865 0.46082,-0.2848 3.25691,0.86349 6.21352,2.55175 2.95662,1.68827 4.58426,2.8175 3.61699,2.50941 -0.96728,-0.3081 -2.91114,-0.12201 -4.31969,0.41352 -1.94119,0.73803 -2.92668,0.60801 -4.07193,-0.53725 -0.83102,-0.83101 -1.92466,-1.25524 -2.43032,-0.94272 -1.29933,0.80302 -1.18436,1.12539 1.19031,3.33774 2.01322,1.87559 5.4838,1.88173 4.32555,0.008 -0.3043,-0.49237 -0.057,-0.89522 0.54958,-0.89522 0.60657,0 0.97063,0.72781 0.80902,1.61736 -0.3602,1.98264 3.07166,3.98647 8.66275,5.05813 1.07613,0.20626 2.20113,0.76868 2.5,1.24981 0.29888,0.48114 1.44341,1.03228 2.54341,1.22475 1.1,0.19247 2.31303,0.78692 2.69563,1.32099 0.38259,0.53407 1.00922,0.65745 1.3925,0.27417 0.94962,-0.95003 -1.49092,-3.74558 -3.26962,-3.74558 -0.79012,0 -1.1876,-0.40285 -0.8833,-0.89522 0.3043,-0.49236 -0.14251,-1.16221 -0.99292,-1.48854 -0.8854,-0.33976 -1.28509,-0.17086 -0.93524,0.39521 0.33602,0.5437 0.16095,0.98855 -0.38905,0.98855 -0.55,0 -1.27811,-0.45 -1.61803,-1 -0.33992,-0.55 -1.46492,-1 -2.5,-1 -2.38756,0 -3.56624,-1.83376 -2.11287,-3.28713 0.81716,-0.81716 1.11287,-0.66115 1.11287,0.58713 0,0.935 0.49814,1.7 1.10699,1.7 0.60884,0 0.86943,-0.61907 0.57908,-1.37571 -0.71446,-1.86184 2.47233,-1.56243 3.98217,0.37414 0.64253,0.82413 1.50113,1.16554 1.90799,0.75867 0.40686,-0.40686 1.37028,-0.21646 2.14092,0.42312 0.77065,0.63958 2.60888,1.29163 4.08497,1.44901 2.44124,0.26028 4.51384,1.005 13.69788,4.92187 1.65,0.7037 5.7,2.26221 9,3.46335 3.3,1.20115 9.6,3.51091 14,5.13281 4.4,1.6219 9.36118,3.30703 11.02484,3.74473 1.66366,0.4377 5.61804,1.76606 8.78751,2.95192 3.16947,1.18585 6.65992,2.15609 7.75655,2.15609 1.09663,0 2.24199,0.64659 2.54524,1.43686 0.30326,0.79027 1.18914,1.19212 1.96862,0.89301 0.77948,-0.29912 1.41724,-0.0598 1.41724,0.53176 0,0.59158 0.5625,0.86945 1.25,0.61749 0.6875,-0.25196 1.925,-0.0128 2.75,0.53138 1.33333,0.87956 1.33333,1.11109 0,2.08383 -1.33333,0.97274 -1.33333,1.04476 0,0.64821 0.825,-0.24538 2.52837,0.61217 3.78528,1.90566 1.2569,1.29349 1.8194,2.3518 1.25,2.3518 -0.56941,0 -1.03528,0.47656 -1.03528,1.05902 0,0.58246 0.50031,0.7498 1.1118,0.37188 0.6115,-0.37792 1.5046,-0.067 1.98469,0.69098 0.73716,1.16384 0.87527,1.16473 0.8882,0.006 0.0123,-1.10195 0.30878,-1.12889 1.5043,-0.1367 0.81894,0.67967 1.19941,1.70429 0.84549,2.27696 -0.39549,0.63992 -0.1519,0.73737 0.63205,0.25287 0.93708,-0.57915 0.44738,-1.56232 -1.84549,-3.7052 -3.09723,-2.89461 -3.63963,-3.96357 -2.55932,-5.04388 0.66361,-0.66361 4.58375,2.87704 6.34236,5.72839 1.19989,1.94547 1.22099,1.94028 0.77397,-0.19025 -0.48715,-2.32175 -0.75429,-2.3559 5.28495,0.67562 1.62274,0.81457 1.87738,0.68457 1.46907,-0.75 -0.27166,-0.95445 0.0388,-0.72287 0.68981,0.51463 0.65106,1.2375 2.12748,2.3022 3.28093,2.366 1.6559,0.0916 1.73363,0.21133 0.36938,0.56905 -1.55878,0.40873 -1.5829,0.67421 -0.24649,2.71383 0.81472,1.24342 1.2135,2.52858 0.88618,2.85591 -0.84768,0.84768 1.83102,0.34949 3.405,-0.63326 0.87122,-0.54397 1.21194,-0.36525 1.00679,0.52812 -0.17055,0.74269 0.005,1.35035 0.39007,1.35035 0.38509,0 1.38023,0.9 2.21141,2 0.83118,1.1 1.52555,1.53326 1.54305,0.9628 0.0175,-0.57045 0.97033,-1.10789 2.11741,-1.1943 1.31515,-0.0991 1.90561,0.31201 1.59833,1.11275 -0.39752,1.03592 2.49137,3.0942 7.39939,5.27194 0.32084,0.14236 0.58334,-0.39637 0.58334,-1.19718 0,-0.8008 -0.4875,-1.52455 -1.08334,-1.60832 -0.59583,-0.0838 -1.53333,-0.25687 -2.08333,-0.38465 -0.55,-0.12779 -1.5625,-0.28425 -2.25,-0.34769 -0.6875,-0.0634 -1.25,-0.56998 -1.25,-1.12563 0,-1.51491 19.90939,1.27279 20.97097,2.93634 0.29097,0.45595 2.48684,1.15633 4.87971,1.55638 4.23495,0.70803 4.33112,0.66473 3.61522,-1.62753 -0.4045,-1.2952 -1.23731,-2.68552 -1.85068,-3.0896 -0.63547,-0.41864 -0.68504,-0.74786 -0.11522,-0.76531 0.55,-0.0168 0.325,-0.51618 -0.5,-1.10965 -1.24567,-0.89606 -1.18798,-0.97769 0.34024,-0.48144 2.60678,0.84649 4.10565,-0.36238 2.18796,-1.76463 -1.27692,-0.93371 -0.69577,-1.09249 2.94016,-0.80331 2.4924,0.19823 4.53164,0.81325 4.53164,1.36671 0,0.55346 -0.675,0.74728 -1.5,0.43069 -0.825,-0.31658 -1.5,-0.13972 -1.5,0.39301 0,0.53274 1.17748,0.96862 2.61663,0.96862 2.0732,0 2.51402,0.39238 2.12257,1.8893 -0.55515,2.12291 0.78024,4.92459 1.84144,3.86339 0.37917,-0.37917 0.74114,-1.6094 0.80438,-2.73384 0.1548,-2.75245 2.05071,-2.58249 2.0866,0.18706 0.025,1.92951 0.65206,2.22789 5.27838,2.51166 2.8875,0.17712 5.25,-0.0324 5.25,-0.4656 0,-0.43319 -2.25,-0.77197 -5,-0.75284 -2.75,0.0191 -5,-0.31035 -5,-0.73217 0,-0.78315 1.0442,-0.93751 6.72863,-0.99465 1.77574,-0.0179 3.01582,-0.37678 2.75574,-0.7976 -0.26009,-0.42083 0.18512,-1.01764 0.98935,-1.32625 0.80423,-0.30861 1.73274,-0.12343 2.06335,0.41153 0.33062,0.53495 1.13253,0.6436 1.78203,0.24145 1.63622,-1.0131 13.89868,-0.36559 15.31352,0.80863 0.76537,0.63519 1.67358,0.44087 2.69001,-0.57555 0.84398,-0.84399 2.35416,-1.52763 3.35594,-1.51921 1.54185,0.013 1.59119,0.16411 0.32143,0.98469 -0.90129,0.58246 -1.02463,0.97549 -0.30902,0.98469 0.65504,0.008 1.45695,-0.41504 1.78203,-0.94102 0.32507,-0.52598 1.2243,-0.71332 1.99828,-0.41631 0.77398,0.297 2.22207,0.066 3.21797,-0.51327 1.72186,-1.00157 1.71666,-1.05477 -0.10593,-1.08368 -3.64393,-0.0578 -0.6794,-1.25219 4.02882,-1.62317 2.79625,-0.22032 5.34687,0.13083 6.2484,0.86023 0.98145,0.79407 1.27967,0.82581 0.83832,0.0892 -0.79215,-1.32208 2.93294,-2.60645 8.55641,-2.95015 2.73684,-0.16727 4.11718,0.28716 5.0897,1.67562 0.73392,1.04782 1.61012,1.62943 1.9471,1.29245 0.33697,-0.33698 -0.0409,-1.26626 -0.8397,-2.06507 -0.79881,-0.79881 -1.41685,-1.98273 -1.37343,-2.63095 0.0528,-0.78838 0.25054,-0.75091 0.59724,0.11317 0.38883,0.96906 0.85672,1.01088 1.87307,0.16738 0.80945,-0.67179 2.27973,-0.81381 3.65275,-0.35283 3.81214,1.2799 5.21623,1.33501 5.89823,0.23152 0.45135,-0.7303 0.85292,-0.72262 1.31507,0.0252 0.68771,1.11273 -5.32325,4.12446 -8.28743,4.15234 -1.30679,0.0123 -1.35766,0.1865 -0.2579,0.88317 1.10617,0.70074 1.00989,1.07706 -0.5,1.95428 -1.02849,0.59753 -1.32501,1.10011 -0.65894,1.11683 0.66608,0.0167 2.09411,-0.91745 3.17342,-2.07594 1.16329,-1.24865 2.46366,-1.79653 3.19346,-1.34549 0.79008,0.4883 0.97549,0.34728 0.51757,-0.39365 -0.42705,-0.69134 -0.0639,-1.15487 0.90451,-1.15487 0.88992,0 1.33992,0.45 1,1 -0.33992,0.55 -0.14148,1 0.44098,1 0.58246,0 1.05902,-0.675 1.05902,-1.5 0,-0.825 0.43588,-1.5 0.96862,-1.5 0.53273,0 0.72156,0.64381 0.4196,1.4307 -0.47146,1.22862 0.13325,1.24694 4.28139,0.12973 9.06947,-2.44265 15.25546,-4.76522 16.41589,-6.16345 0.63766,-0.76834 2.41748,-1.39698 3.95516,-1.39698 3.76993,0 5.95934,-0.9361 5.95934,-2.54797 0,-0.7337 0.51953,-1.65508 1.15451,-2.04752 0.63498,-0.39244 0.89111,-0.28734 0.56918,0.23355 -0.32192,0.52089 0.76605,1.05004 2.41773,1.17589 1.75172,0.13348 2.75126,-0.17857 2.39879,-0.74889 -0.33234,-0.53774 -1.26485,-0.72422 -2.07224,-0.4144 -0.80738,0.30983 -1.46797,0.11766 -1.46797,-0.42704 0,-0.5447 0.90062,-1.22587 2.00138,-1.51373 1.10076,-0.28785 1.77834,-0.16249 1.50574,0.27858 -1.1219,1.81529 2.83876,1.83816 7.26178,0.0419 4.01887,-1.63209 4.93311,-2.65785 1.88735,-2.11757 -0.46406,0.0823 -0.6603,-0.40067 -0.43609,-1.0733 0.22421,-0.67263 1.88659,-1.39185 3.69418,-1.59826 2.46141,-0.28108 3.12416,-0.0446 2.63978,0.94171 -0.35571,0.72436 0.10398,0.30452 1.02154,-0.93298 0.91756,-1.2375 2.2884,-2.25 3.04631,-2.25 0.75792,0 1.37803,-0.45 1.37803,-1 0,-1.80659 1.90553,-1.04524 3.12854,1.25 1.05405,1.97816 1.0132,2.09689 -0.33807,0.98275 -0.84534,-0.69699 -2.30674,-0.97187 -3.24757,-0.61084 -1.35808,0.52114 -1.43572,0.83066 -0.37675,1.50194 0.99872,0.63309 1.01979,0.84937 0.0838,0.86084 -0.6875,0.008 -1.25,0.49187 -1.25,1.07433 0,0.58246 0.5625,0.76841 1.25,0.41322 0.6875,-0.35519 0.125,0.28325 -1.25,1.41875 -3.25,2.6839 -1.66519,2.71886 2.0884,0.0461 2.4227,-1.72511 2.79161,-1.78794 2.25274,-0.38366 -0.56207,1.46473 -0.35579,1.52482 1.61459,0.4703 3.29734,-1.76468 4.33359,0.14461 1.30104,2.39716 -1.42229,1.05646 -2.2895,1.44112 -1.92712,0.85478 0.67617,-1.09406 -2.19763,-2.74099 -3.13944,-1.79917 -0.28795,0.28795 -0.16844,0.52354 0.26557,0.52354 0.43401,0 0.17151,0.75925 -0.58334,1.68723 -1.18778,1.46021 -1.15841,1.60721 0.21824,1.09252 0.87488,-0.32709 2.22488,-0.19323 3,0.29746 1.06957,0.67709 0.86691,0.89586 -0.84068,0.90748 -1.32653,0.009 -2.25,0.63096 -2.25,1.51531 0,1.3918 2.43403,2.02728 5.89963,1.54029 1.09853,-0.15437 1.05974,0.1432 -0.18032,1.38326 -1.20197,1.20197 -2.18323,1.35057 -4.10176,0.62114 -1.96272,-0.74622 -2.40884,-0.66437 -2.01221,0.36922 0.28028,0.7304 -0.19126,1.59695 -1.04787,1.92566 -0.85661,0.32871 -1.55747,1.28678 -1.55747,2.12905 0,1.83389 -2.63967,2.05954 -3.29167,0.28138 -0.36666,-1 -0.72333,-1 -1.78333,0 -1.0923,1.03047 -1.0368,1.25 0.31598,1.25 2.43487,0 2.96867,1.58549 1.05605,3.13669 -1.16045,0.94117 -1.44808,0.97572 -0.92891,0.11159 0.41363,-0.68845 -0.83518,-0.31524 -2.77513,0.82935 -1.93994,1.1446 -4.06286,1.75001 -4.7176,1.34536 -0.83233,-0.51441 -1.0208,-0.0871 -0.62653,1.42064 0.44517,1.70235 0.12227,2.15637 -1.53361,2.15637 -2.0619,0 -2.06456,0.026 -0.15638,1.53064 1.91571,1.51059 1.91494,1.52873 -0.0589,1.38485 -3.31711,-0.24181 -4.5,0.035 -4.5,1.05313 0,0.53273 0.675,0.70959 1.5,0.39301 1.66169,-0.63765 1.99248,1.31249 0.59649,3.51649 -0.50849,0.8028 -1.40152,1.0514 -2.1392,0.59549 -0.74188,-0.45851 -1.01647,-0.37838 -0.66303,0.1935 0.33181,0.53687 -0.29335,1.74386 -1.38924,2.68219 -1.78718,1.53023 -2.14997,1.54861 -3.5202,0.17838 -2.05178,-2.05179 -4.37742,-1.93472 -4.41662,0.22232 -0.0288,1.58346 -0.17153,1.56527 -1.5,-0.19113 -1.40809,-1.86166 -1.4682,-1.83095 -1.4682,0.75 0,2.00285 -0.49948,2.69113 -1.95295,2.69113 -2.004,0 -7.15368,1.971 -8.04705,3.07994 -0.275,0.34136 -1.5125,1.15385 -2.75,1.80554 -1.2375,0.65169 -2.25,2.10481 -2.25,3.22916 0,1.73163 -0.43988,1.94766 -2.87629,1.41253 -1.96922,-0.43251 -3.37708,-0.13095 -4.46428,0.95626 -0.8734,0.8734 -1.82907,1.57193 -2.12372,1.55228 -2.70473,-0.18033 -3.53563,0.20295 -3.53563,1.63095 0,0.91666 -0.28205,1.38461 -0.62678,1.03988 -0.94178,-0.94178 -6.52949,2.23159 -5.85398,3.32458 0.32155,0.52028 -0.11374,0.67797 -0.9673,0.35043 -0.85357,-0.32755 -1.55194,-0.14988 -1.55194,0.39482 0,0.5447 -0.9,1.22571 -2,1.51337 -1.1,0.28766 -2,1.06689 -2,1.73164 0,0.83492 0.76211,0.70927 2.46482,-0.40638 2.74663,-1.79967 6.53518,-2.1562 6.53518,-0.61501 0,0.55 0.48032,1 1.06739,1 0.61231,0 0.79675,-0.85269 0.43261,-2 -0.52226,-1.6455 -0.1797,-2 1.93261,-2 1.65865,0 2.56739,-0.55182 2.56739,-1.55902 0,-0.85746 0.42234,-1.29799 0.93854,-0.97896 0.5162,0.31902 1.38245,-0.21317 1.925,-1.18266 0.54255,-0.96948 1.29878,-1.45038 1.6805,-1.06865 0.38173,0.38173 -0.0119,1.40004 -0.8748,2.2629 -0.95474,0.95474 -1.42053,2.74082 -1.18994,4.56282 0.21263,1.68009 -0.0288,2.74198 -0.5502,2.41975 -0.511,-0.31582 -0.9291,-1.22266 -0.9291,-2.0152 0,-0.79254 -0.9,-1.44098 -2,-1.44098 -1.1,0 -2,0.49814 -2,1.10699 0,0.60884 0.675,0.84797 1.5,0.53138 2.6278,-1.00838 1.61195,0.25238 -1.5,1.86163 -1.65,0.85325 -3.00689,2.3273 -3.01531,3.27568 -0.0114,1.28828 -0.22342,1.39625 -0.83827,0.42699 -0.65452,-1.0318 -1.09441,-0.97027 -2.14914,0.30061 -1.13766,1.37079 -1.01849,1.67841 0.83827,2.16397 1.19045,0.31131 2.16383,0.85103 2.16307,1.19938 -0.003,1.25113 -7.57394,9.13337 -8.77297,9.13337 -0.67411,0 -1.22565,0.45 -1.22565,1 0,0.55 -0.85186,1 -1.89301,1 -1.04116,0 -2.14377,0.65347 -2.45026,1.45216 -0.32974,0.85929 -1.44189,1.2818 -2.72408,1.03487 -1.19175,-0.22951 -3.49261,0.2683 -5.11302,1.10624 -3.2397,1.67531 -10.68291,2.43696 -11.46403,1.17309 z m -51.8556,-18.76636 c -0.33992,-0.55 -1.37898,-0.96837 -2.30902,-0.92971 -1.37849,0.0573 -1.32139,0.2291 0.30902,0.92971 2.67591,1.14988 2.71066,1.14988 2,0 z m -41,-12 c -0.33992,-0.55 -1.15398,-0.99311 -1.80902,-0.98469 -0.71561,0.009 -0.59227,0.40223 0.30902,0.98469 1.92112,1.24153 2.2673,1.24153 1.5,0 z m 144.5,-10.44098 c 0,-0.24254 -0.45,-0.7191 -1,-1.05902 -0.55,-0.33992 -1,-0.14148 -1,0.44098 0,0.58246 0.45,1.05902 1,1.05902 0.55,0 1,-0.19844 1,-0.44098 z m -171.5,-1.55902 c -0.33992,-0.55 -1.15398,-0.99311 -1.80902,-0.98469 -0.71561,0.009 -0.59227,0.40223 0.30902,0.98469 1.92112,1.24153 2.2673,1.24153 1.5,0 z m -6.53063,-5.5 c 0,-0.55 -0.43621,-0.325 -0.96937,0.5 -0.53316,0.825 -0.96937,1.95 -0.96937,2.5 0,0.55 0.43621,0.325 0.96937,-0.5 0.53316,-0.825 0.96937,-1.95 0.96937,-2.5 z m -2.96937,2.05902 c 0,-0.24254 -0.45,-0.7191 -1,-1.05902 -0.55,-0.33992 -1,-0.14148 -1,0.44098 0,0.58246 0.45,1.05902 1,1.05902 0.55,0 1,-0.19844 1,-0.44098 z m 191,-1.55902 c 0,-0.55 -0.42344,-1 -0.94098,-1 -0.51754,0 -1.2191,0.45 -1.55902,1 -0.33992,0.55 0.0835,1 0.94098,1 0.85746,0 1.55902,-0.45 1.55902,-1 z m -190,-1.44098 c 0,-0.24254 -0.45,-0.7191 -1,-1.05902 -0.55,-0.33992 -1,-0.14148 -1,0.44098 0,0.58246 0.45,1.05902 1,1.05902 0.55,0 1,-0.19844 1,-0.44098 z m -4.8875,-3.84652 c -0.81667,-0.81667 -1.1125,-0.70476 -1.1125,0.42083 0,1.98786 1.3447,3.33256 1.84167,1.84167 0.21083,-0.6325 -0.1173,-1.65062 -0.72917,-2.2625 z m 209.8875,0.66506 c 0,-1.3288 -0.27149,-1.39713 -1.5,-0.37756 -0.825,0.68469 -1.5,1.41479 -1.5,1.62244 0,0.20766 0.675,0.37756 1.5,0.37756 0.825,0 1.5,-0.7301 1.5,-1.62244 z m -4.54705,-0.53808 c 1.40088,-0.63828 2.54705,-1.54865 2.54705,-2.02305 0,-0.68262 -3.06612,0.81032 -5.91667,2.88091 -0.99536,0.72301 1.03378,0.20643 3.36962,-0.85786 z m 8.27622,-1.44365 c -0.33229,-0.33229 -1.1948,-0.36781 -1.91667,-0.0789 -0.79773,0.31922 -0.56078,0.55618 0.60417,0.60416 1.05416,0.0434 1.64479,-0.19293 1.3125,-0.52522 z m -102.76279,-2.35389 c 0.9792,-0.61931 -0.59893,-0.87131 -4.75,-0.7585 -3.41901,0.0929 -6.21638,0.51716 -6.21638,0.94275 0,1.09127 9.19387,0.9368 10.96638,-0.18425 z m -12.23721,-0.64611 c -0.33229,-0.33229 -1.1948,-0.36781 -1.91667,-0.0789 -0.79773,0.31922 -0.56078,0.55618 0.60417,0.60416 1.05416,0.0434 1.64479,-0.19293 1.3125,-0.52522 z m -115.0625,-5.93886 c 0,-0.80133 -0.78287,-1.45697 -1.73972,-1.45697 -1.2266,0 -1.59079,0.56947 -1.23479,1.9308 0.56685,2.16766 2.97451,1.78412 2.97451,-0.47383 z m 76.85883,0.63091 c -1.78479,-0.69742 -1.68872,-0.87524 1,-1.85077 2.27841,-0.82666 2.49476,-1.09769 0.9245,-1.15816 -2.04636,-0.0788 -4.45,1.60701 -4.45,3.12105 0,0.44 1.0125,0.76837 2.25,0.72971 2.10602,-0.0658 2.12365,-0.11965 0.2755,-0.84183 z m 24.57224,-1.14727 c -0.22124,-0.79234 -0.43016,-2.16076 -0.46428,-3.04095 -0.0423,-1.09166 -0.7091,-1.44574 -2.09775,-1.11396 -1.66332,0.39741 -1.80705,0.24199 -0.78571,-0.84966 1.7858,-1.90872 1.5526,-3.3815 -0.25,-1.5789 -1.74134,1.74134 -1.97153,3.64286 -0.44098,3.64286 0.58246,0 0.73364,0.52647 0.33595,1.16994 -0.47859,0.77437 -0.18841,0.96477 0.85823,0.56314 0.92734,-0.35585 1.81968,0.0145 2.15775,0.89545 0.4425,1.15315 0.0841,1.34596 -1.54247,0.82973 -1.47657,-0.46865 -1.90113,-0.32011 -1.40047,0.48997 1.0012,1.61998 4.12156,0.75376 3.62973,-1.00762 z m 3.88695,1.30939 c -0.0335,-1.64154 -1.92414,-3.64067 -2.68032,-2.83413 -0.4424,0.47186 -0.23907,1.05977 0.45186,1.30644 0.69093,0.24668 1.00187,0.86008 0.69098,1.3631 -0.31088,0.50302 -0.0887,0.91459 0.49377,0.91459 0.58246,0 1.05213,-0.3375 1.04371,-0.75 z m -20.98469,-2.25 c -1.95837,-1.2656 -3.28218,-1.2656 -2.5,0 0.33992,0.55 1.37898,0.99311 2.30902,0.98469 1.45727,-0.0132 1.48367,-0.14929 0.19098,-0.98469 z m 40.40435,-0.61134 c 0.45257,-1.17937 0.19124,-1.44745 -0.9748,-1 -0.87622,0.33624 -1.80788,0.61134 -2.07035,0.61134 -0.26248,0 -0.19912,0.45 0.1408,1 0.91728,1.48419 2.20417,1.21331 2.90435,-0.61134 z m 3.59565,0.61134 c 0,-0.55 -0.45,-1 -1,-1 -0.55,0 -1,0.45 -1,1 0,0.55 0.45,1 1,1 0.55,0 1,-0.45 1,-1 z m 5,0.10699 c 0,-1.10907 -3.07642,-2.36391 -3.86417,-1.57616 -0.31785,0.31786 0.0841,0.99656 0.89313,1.50823 1.86986,1.18254 2.97104,1.20771 2.97104,0.0679 z m 64.91667,-0.72381 c 1.37132,-1.26112 -1.13158,-1.1786 -4.01535,0.13239 l -3.40132,1.54628 3.5,-0.64774 c 1.925,-0.35626 3.6875,-0.82017 3.91667,-1.03093 z m -203.55504,-2.88318 c 0.31658,-0.825 0.13972,-1.5 -0.39301,-1.5 -0.53274,0 -0.96862,0.675 -0.96862,1.5 0,0.825 0.17686,1.5 0.39301,1.5 0.21616,0 0.65203,-0.675 0.96862,-1.5 z m 63.63837,0.5 c 0,-0.55 -0.47656,-1 -1.05902,-1 -0.58246,0 -0.7809,0.45 -0.44098,1 0.33992,0.55 0.81648,1 1.05902,1 0.24254,0 0.44098,-0.45 0.44098,-1 z m 45.5,0 c 0.33992,-0.55 0.14148,-1 -0.44098,-1 -0.58246,0 -1.05902,0.45 -1.05902,1 0,0.55 0.19844,1 0.44098,1 0.24254,0 0.7191,-0.45 1.05902,-1 z m 101.5,-1.4467 c 0,-0.97419 -3.44215,0.27315 -3.81149,1.38118 -0.3268,0.98039 0.0492,1.00865 1.69579,0.12744 1.16363,-0.62276 2.1157,-1.30164 2.1157,-1.50862 z m -29,-1.14393 c 0,-0.77394 -7.92986,-0.0689 -9.20327,0.81824 -0.85606,0.5964 -0.53211,0.68833 0.95327,0.27051 1.27158,-0.35768 2.25,-0.19136 2.25,0.38247 0,0.6804 0.98971,0.67036 3,-0.0304 1.65,-0.5752 3,-1.22355 3,-1.44079 z m 37.52646,-1.21624 c -0.30789,-0.30789 -1.11479,-6.4e-4 -1.79313,0.68278 -0.98026,0.98762 -0.8654,1.10248 0.5598,0.5598 0.98622,-0.37553 1.54122,-0.93469 1.23333,-1.24258 z m 4.47354,-1.31116 c 0,-0.55 -0.45,-0.72189 -1,-0.38197 -0.55,0.33992 -1,1.06803 -1,1.61803 0,0.55 0.45,0.72189 1,0.38197 0.55,-0.33992 1,-1.06803 1,-1.61803 z m -47,0.51038 c 0,-0.82763 -1.94173,-1.29565 -2.38691,-0.57533 -0.28881,0.46731 0.13009,0.84965 0.9309,0.84965 0.8008,0 1.45601,-0.12345 1.45601,-0.27432 z m 11,-2.39235 c 0,-0.55 -0.47656,-1 -1.05902,-1 -0.58246,0 -0.7809,0.45 -0.44098,1 0.33992,0.55 0.81648,1 1.05902,1 0.24254,0 0.44098,-0.45 0.44098,-1 z m 39,0 c 0,-0.55 -0.45,-1 -1,-1 -0.55,0 -1,0.45 -1,1 0,0.55 0.45,1 1,1 0.55,0 1,-0.45 1,-1 z m 25.36383,-0.49426 c -0.31537,-0.82184 -1.02429,-1.21559 -1.57538,-0.875 -0.6161,0.38078 -0.47947,0.95034 0.35479,1.47895 1.82081,1.15372 1.88322,1.12284 1.22059,-0.60395 z m -198.36383,-0.33907 c 0,-0.45834 -0.5625,-0.87574 -1.25,-0.92757 -0.6875,-0.0518 -2.375,-0.41305 -3.75,-0.80271 -1.71825,-0.48694 -2.1873,-0.38359 -1.5,0.3305 0.86226,0.89587 3.0412,1.69814 5.75,2.11711 0.4125,0.0638 0.75,-0.259 0.75,-0.71733 z m 180,-0.66667 c 0,-0.825 -0.675,-1.5 -1.5,-1.5 -1.56157,0 -1.98397,1.1827 -0.83333,2.33333 1.15063,1.15064 2.33333,0.72824 2.33333,-0.83333 z m -253.67591,-2.125 c -0.0967,-0.48125 -0.48945,-1.6809 -0.87268,-2.66589 -0.38322,-0.985 -0.30407,-1.71921 0.17591,-1.63158 2.25904,0.4124 4.37268,-0.18901 4.37268,-1.2442 0,-0.64166 -0.2961,-0.87057 -0.65799,-0.50867 -0.3619,0.36189 -1.22663,0.18606 -1.92164,-0.39075 -0.89119,-0.73962 -1.85558,-0.67907 -3.27189,0.20544 -1.65149,1.03137 -1.81303,1.61892 -0.90938,3.30741 0.60437,1.12928 1.02282,2.16574 0.92988,2.30324 -0.67373,0.99676 0.0631,2.33157 1.08102,1.95833 0.6875,-0.25208 1.17084,-0.85208 1.07409,-1.33333 z m 12.24714,-2.19184 c -0.70199,-0.72427 -1.9052,-1.41192 -2.67379,-1.52812 -0.76859,-0.11621 -1.95994,-0.56268 -2.64744,-0.99218 -0.70469,-0.44023 -1.25,-0.3189 -1.25,0.27812 0,0.58246 -0.9,1.05902 -2,1.05902 -2.14536,0 -2.68188,1.46054 -0.93347,2.54112 0.5866,0.36254 1.61061,-0.0849 2.27559,-0.99432 1.09828,-1.50199 1.42314,-1.42558 3.54603,0.83414 1.83651,1.95488 2.61778,2.23399 3.64821,1.30333 1.06371,-0.96072 1.07029,-1.43284 0.0349,-2.50111 z m -3.57123,-0.24218 c 0,-0.58246 0.45,-0.7809 1,-0.44098 0.55,0.33992 1,0.81648 1,1.05902 0,0.24254 -0.45,0.44098 -1,0.44098 -0.55,0 -1,-0.47656 -1,-1.05902 z m 249,1.55902 c 0,-0.825 -0.45,-1.5 -1,-1.5 -0.55,0 -1,0.675 -1,1.5 0,0.825 0.45,1.5 1,1.5 0.55,0 1,-0.675 1,-1.5 z m -187,0.059 c 0,-0.24254 -0.45,-0.7191 -1,-1.05902 -0.55,-0.33992 -1,-0.14148 -1,0.44098 0,0.58246 0.45,1.05902 1,1.05902 0.55,0 1,-0.19844 1,-0.44098 z m -74,-1 c 0,-0.24254 -0.45,-0.7191 -1,-1.05902 -0.55,-0.33992 -1,-0.14148 -1,0.44098 0,0.58246 0.45,1.05902 1,1.05902 0.55,0 1,-0.19844 1,-0.44098 z m 270,-0.559 c 0,-0.55 -0.45,-1 -1,-1 -0.55,0 -1,0.45 -1,1 0,0.55 0.45,1 1,1 0.55,0 1,-0.45 1,-1 z m -211,-2.38337 c 0,-0.21085 -0.9,-0.61872 -2,-0.90638 -1.1,-0.28766 -2,-0.11514 -2,0.38337 0,0.49851 0.9,0.90638 2,0.90638 1.1,0 2,-0.17252 2,-0.38337 z m 215.52699,-0.57296 c -0.32507,-0.52598 -1.32975,-0.67285 -2.23262,-0.32639 -1.2948,0.49686 -1.48677,0.22357 -0.90873,-1.29367 0.5591,-1.46755 0.45496,-1.64791 -0.43926,-0.76074 -1.53536,1.52324 -0.35496,3.33713 2.17165,3.33713 1.1,0 1.73404,-0.43035 1.40896,-0.95633 z m -408.22831,-9.70771 c -0.41219,-1.07415 -0.2467,-1.42187 0.46681,-0.98089 1.66693,1.03022 6.49228,-4.26134 5.91142,-6.48256 -0.26903,-1.02879 -0.0814,-2.12252 0.41697,-2.43053 0.49837,-0.30801 0.90612,0.12742 0.90612,0.96762 0,0.94705 0.57008,1.30887 1.5,0.95203 0.825,-0.31659 1.5,-1.22902 1.5,-2.02764 0,-0.84088 0.48474,-1.15244 1.1517,-0.74023 0.63344,0.39148 1.64594,0.0805 2.25,-0.69098 0.60407,-0.77153 1.8858,-1.44028 2.8483,-1.48611 6.29621,-0.29982 6.75,-0.46229 6.75,-2.41667 0,-1.1 0.40787,-2 0.90638,-2 0.49851,0 0.65707,1.0125 0.35235,2.25 -0.30472,1.2375 -0.19149,1.9164 0.25161,1.50868 0.4431,-0.40773 1.40955,-0.24013 2.14765,0.37244 1.66478,1.38165 1.7874,-0.28573 0.14201,-1.93112 -0.93333,-0.93333 -0.93333,-1.2 0,-1.2 1.89387,0 1.39714,-1.55455 -0.55,-1.72127 -0.9625,-0.0824 -2.91647,-0.44273 -4.34217,-0.8007 -1.6302,-0.40931 -3.11461,-0.14275 -4,0.7183 -0.7743,0.75303 -3.38882,1.43867 -5.81002,1.52364 -2.42121,0.085 -4.67121,0.5451 -5,1.02249 -0.3288,0.47739 -1.61031,0.90563 -2.84781,0.95165 -1.2375,0.046 -3.06515,0.13367 -4.06144,0.19478 -0.99629,0.0611 -2.77747,1.01111 -3.95819,2.11111 -1.18071,1.1 -2.61556,2 -3.18856,2 -0.57299,0 -1.04181,0.6382 -1.04181,1.41821 0,0.78002 -0.24967,2.06884 -0.55481,2.86404 -0.3888,1.01317 0.40711,1.63821 2.65972,2.08873 1.76799,0.3536 2.91668,0.94077 2.55263,1.30481 -0.36405,0.36405 0.0838,1.48593 0.99527,2.49306 2.05313,2.26868 2.4685,2.31086 1.64587,0.16711 z m 1.25709,-3.24572 c -1.06583,-1.72454 0.53328,-3.87971 2.49757,-3.36604 1.05829,0.27675 1.68982,0.88237 1.40339,1.34582 -0.28643,0.46345 -1.18647,0.58718 -2.0001,0.27497 -1.04832,-0.40228 -1.29916,-0.0982 -0.86098,1.04367 0.65837,1.71568 -0.0978,2.22586 -1.03988,0.70158 z m 158.44423,-0.0589 c 0,-0.53273 -0.675,-0.70959 -1.5,-0.39301 -0.825,0.31659 -1.5,0.75246 -1.5,0.96862 0,0.21615 0.675,0.39301 1.5,0.39301 0.825,0 1.5,-0.43588 1.5,-0.96862 z m -128.33759,-6.46873 c -0.32041,-0.83499 0.1586,-1.62453 1.14302,-1.884 1.20818,-0.31845 1.04876,-0.47994 -0.55543,-0.56265 -1.2375,-0.0638 -2.25,0.0722 -2.25,0.30221 0,0.96358 1.25288,3.58179 1.71398,3.58179 0.275,0 0.25179,-0.64681 -0.0516,-1.43735 z m 99.33759,-0.62167 c 0,-0.58246 -0.39901,-0.81241 -0.88669,-0.51101 -0.48768,0.30141 -1.40614,-0.0779 -2.04102,-0.84287 -0.63488,-0.76498 -2.37337,-1.69508 -3.86331,-2.0669 -1.48994,-0.37181 -3.49648,-1.38571 -4.45898,-2.2531 -0.9625,-0.86739 -1.75,-1.22723 -1.75,-0.79964 0,0.42758 -0.675,0.21723 -1.5,-0.46746 -1.03636,-0.8601 -1.5,-0.89795 -1.5,-0.12244 0,0.61734 0,1.45994 0,1.87244 0,0.4125 0.7875,0.73846 1.75,0.72436 0.9625,-0.0141 2.2,0.53982 2.75,1.23094 0.55,0.69111 2.125,1.37765 3.5,1.52564 1.375,0.14798 3.09464,0.83156 3.82143,1.51906 1.61223,1.52509 4.17857,1.64238 4.17857,0.19098 z m -49.327,-17.38933 c -1.00484,-0.7616 -1.68615,-2.2161 -1.51401,-3.23221 0.43358,-2.55928 -3.30503,-6.01706 -6.23618,-5.76777 -1.33255,0.11334 -3.21031,-0.48417 -4.17281,-1.32779 -0.9625,-0.84362 -1.75,-1.22328 -1.75,-0.84368 0,0.37959 -0.9,0.2085 -2,-0.3802 -1.69062,-0.90479 -2,-0.76049 -2,0.93288 0,1.15702 1.16168,2.63346 2.75,3.49515 1.61764,0.87758 2.13235,1.53971 1.25,1.60801 -0.825,0.0639 0.075,0.69144 2,1.39462 1.925,0.70318 3.7411,0.91086 4.03578,0.46152 0.75491,-1.15112 5.07099,0.12604 4.35283,1.28804 -0.61882,1.00128 2.39661,3.75617 4.11139,3.75617 0.55,0 0.17785,-0.62313 -0.827,-1.38474 z m 5.56169,-2.05165 c 1.34722,-1.83374 0.79284,-2.3 -2.73469,-2.3 -1.925,0 -3.5,0.405 -3.5,0.9 0,0.495 0.675,0.9 1.5,0.9 0.825,0 1.5,0.45 1.5,1 0,1.22125 2.22251,0.8777 3.23469,-0.5 z m -36.23469,-93.5 c 1.29705,-0.83822 1.27429,-0.97145 -0.16821,-0.98469 -0.91752,-0.008 -2.38512,-0.29041 -3.26134,-0.62665 -1.16604,-0.44745 -1.42737,-0.17937 -0.9748,1 0.69988,1.82386 2.20486,2.03276 4.40435,0.61134 z m -6.31689,-3.1875 c -0.31922,-0.79773 -0.55618,-0.56078 -0.60416,0.60417 -0.0434,1.05416 0.19293,1.64479 0.52522,1.3125 0.33229,-0.33229 0.36781,-1.1948 0.0789,-1.91667 z m -7.15128,-10.90271 c 0.80749,-2.28868 1.45865,-4.44217 1.447,-4.78552 -0.0389,-1.14668 -5.97883,10.88818 -5.97883,12.11364 0,1.94347 2.93524,-2.80292 4.53183,-7.32812 z m -2.03183,-35.90979 c -0.33992,-0.55 -0.21648,-1 0.27432,-1 0.49079,0 0.89235,-0.675 0.89235,-1.5 0,-0.825 -0.6,-1.5 -1.33334,-1.5 -0.73333,0 -1.33333,0.5051 -1.33333,1.12244 0,0.73143 -0.58942,0.64433 -1.69196,-0.25 -1.45844,-1.18302 -1.57497,-1.16542 -0.8443,0.12756 1.49183,2.63992 2.75594,4 3.71772,4 0.51512,0 0.65846,-0.45 0.31854,-1 z m 1.9159,-6.64144 c 0.52667,-1.37248 0.38034,-1.43434 -0.89301,-0.37756 -1.73524,1.44013 -1.91584,2.019 -0.62988,2.019 0.49116,0 1.17646,-0.73865 1.52289,-1.64144 z m -10.4159,-2.35856 c 0,-0.55 -0.42344,-1 -0.94098,-1 -0.51754,0 -1.2191,0.45 -1.55902,1 -0.33992,0.55 0.0835,1 0.94098,1 0.85746,0 1.55902,-0.45 1.55902,-1 z m 14,-2.96862 c 0,-0.53273 -0.675,-0.70959 -1.5,-0.39301 -0.825,0.31659 -1.5,0.75246 -1.5,0.96862 0,0.21615 0.675,0.39301 1.5,0.39301 0.825,0 1.5,-0.43588 1.5,-0.96862 z M 470.4403,679.289 c -2.22545,-0.94915 -2.57734,-1.41417 -1.40931,-1.86238 0.85619,-0.32855 2.17582,-0.21474 2.9325,0.25291 0.7584,0.46872 1.84089,0.46426 2.41225,-0.01 0.60077,-0.49859 2.08618,-0.26094 3.53354,0.56534 l 2.49706,1.42553 -2.75,-0.61654 c -1.7168,-0.3849 -2.75,-0.2001 -2.75,0.49187 0,1.38455 -0.73645,1.34385 -4.46604,-0.2468 z"
       id="path2" /></g></svg>
